<?xml version="1.0" encoding="UTF-8"?>
<!DOCTYPE svg PUBLIC "-//W3C//DTD SVG 1.1//EN" "http://www.w3.org/Graphics/SVG/1.1/DTD/svg11.dtd">
<!-- Creator: CorelDRAW 2020 (64-Bit) -->
<svg xmlns="http://www.w3.org/2000/svg" xml:space="preserve" width="297mm" height="210mm" version="1.1" style="shape-rendering:geometricPrecision; text-rendering:geometricPrecision; image-rendering:optimizeQuality; fill-rule:evenodd; clip-rule:evenodd"
viewBox="0 0 29700 21000"
 xmlns:xlink="http://www.w3.org/1999/xlink"
 xmlns:xodm="http://www.corel.com/coreldraw/odm/2003">
 <defs>
  <style type="text/css">
   <![CDATA[
    .str2 {stroke:#81A6D9;stroke-width:42;stroke-linecap:round;stroke-miterlimit:22.9256}
    .str0 {stroke:#935771;stroke-width:42.37;stroke-linecap:round;stroke-miterlimit:22.9256}
    .str1 {stroke:#3C3966;stroke-width:43.48;stroke-linecap:round;stroke-miterlimit:22.9256}
    .fil14 {fill:none;fill-rule:nonzero}
    .fil12 {fill:#403867;fill-rule:nonzero}
    .fil5 {fill:#477A9B;fill-rule:nonzero}
    .fil8 {fill:#545172;fill-rule:nonzero}
    .fil0 {fill:#65A30D;fill-rule:nonzero}
    .fil13 {fill:#6F4C61;fill-rule:nonzero}
    .fil16 {fill:#7BA859;fill-rule:nonzero}
    .fil19 {fill:#806339;fill-rule:nonzero}
    .fil2 {fill:#81A6D9;fill-rule:nonzero}
    .fil11 {fill:#898192;fill-rule:nonzero}
    .fil10 {fill:#935771;fill-rule:nonzero}
    .fil3 {fill:#9AB8E1;fill-rule:nonzero}
    .fil17 {fill:#BF9556;fill-rule:nonzero}
    .fil4 {fill:#CDDBF0;fill-rule:nonzero}
    .fil9 {fill:#E58C7E;fill-rule:nonzero}
    .fil1 {fill:#F06F76;fill-rule:nonzero}
    .fil6 {fill:#F7C4A5;fill-rule:nonzero}
    .fil15 {fill:#FFC672;fill-rule:nonzero}
    .fil18 {fill:#FFDDAA;fill-rule:nonzero}
    .fil7 {fill:#FFFDFF;fill-rule:nonzero}
   ]]>
  </style>
 </defs>
 <g id="Layer_x0020_1">
  <metadata id="CorelCorpID_0Corel-Layer"/>
  <path id="blob.svg" class="fil0" d="M18429.54 5997.85c1923.55,1702.82 4556.61,2475.39 5250.35,3941.71 677.97,1482.08 -583.37,3657.91 -2112.76,5092.69 -1529.38,1434.78 -3326.8,2128.52 -5234.58,3090.3 -1923.56,977.54 -3973.25,2223.12 -5344.96,1687.05 -1387.48,-536.08 -2096.99,-2838.03 -3027.23,-4824.65 -930.24,-1986.62 -2081.22,-3673.68 -2128.52,-5455.33 -31.54,-1765.88 1056.37,-3642.14 2601.52,-5408.02 1560.92,-1781.65 3594.84,-3437.17 5218.82,-2964.17 1623.99,488.78 2838.03,3137.6 4777.36,4840.42z"/>
  <g id="OBJECTS">
   <rect class="fil1" x="9461.91" y="9764.32" width="1952.36" height="4026.34"/>
   <rect class="fil2" x="17291.19" y="8813.62" width="1952.36" height="4950.83"/>
   <g>
    <path class="fil2" d="M18596.4 12300.45l-1142.48 -343.86 564.71 -1050.99c19.95,-37.09 26.22,-77.77 24.46,-117.85l2.39 1.38 0 -527.92 -236.15 205.65 -561.06 -561.06c-71.1,-71.1 -180.45,-87.21 -269.03,-39.59l-1050.99 564.71 -343.86 -1142.45c-29.01,-96.3 -117.66,-162.21 -218.25,-162.21l-1033.45 0.01c-100.59,0 -189.24,65.92 -218.25,162.21l-343.86 1142.45 -1050.98 -564.71c-88.59,-47.61 -197.9,-31.51 -269.03,39.59l-566.2 566.2 -231.15 -205.73 0 528.36 2.61 -1.67c-0.82,38.36 5.33,77.1 24.38,112.62l564.71 1050.99 -1142.48 343.86c-96.3,28.96 -162.21,117.66 -162.21,218.22l0 1033.5c0,100.54 65.92,189.24 162.21,218.21l1142.48 343.86 -382.03 711.01 -208.78 -96.63 0 560.39 1.61 -0.75c3.61,53.72 24.08,105.95 64.12,145.96l730.77 730.77c71.1,71.09 180.45,87.2 269.03,39.59l1050.99 -564.71 343.86 1142.44c29,96.31 117.66,162.22 218.25,162.22l1033.45 0c100.6,0 189.25,-65.92 218.26,-162.22l343.85 -1142.44 1050.99 564.71c88.58,47.6 197.9,31.5 269.03,-39.59l730.77 -730.77c45.48,-45.48 65.65,-106.66 63.87,-167.96l2.83 3.1 0 -527.66 -207.33 88.06 -384.49 -715.52 1142.48 -343.86c96.3,-28.96 162.21,-117.66 162.21,-218.21l0 -1033.5c-0.04,-100.55 -65.95,-189.25 -162.26,-218.21z"/>
    <path class="fil3" d="M18596.4 11770.48l-1142.48 -343.86 564.71 -1050.99c47.61,-88.58 31.51,-197.89 -39.59,-269.02l-730.77 -730.81c-71.09,-71.09 -180.44,-87.2 -269.02,-39.59l-1050.99 564.71 -343.86 -1142.44c-29.01,-96.3 -117.66,-162.21 -218.25,-162.21l-1033.46 0c-100.59,0 -189.24,65.91 -218.25,162.21l-343.86 1142.44 -1050.98 -564.71c-88.59,-47.6 -197.9,-31.5 -269.03,39.59l-730.77 730.81c-71.09,71.09 -87.2,180.41 -39.59,269.02l564.71 1050.99 -1142.48 343.86c-96.3,28.96 -162.21,117.66 -162.21,218.22l0 1033.5c0,100.54 65.92,189.24 162.21,218.21l1142.48 343.86 -564.71 1050.99c-47.61,88.58 -31.5,197.9 39.59,269.03l730.77 730.77c71.09,71.09 180.44,87.2 269.03,39.59l1050.98 -564.72 343.86 1142.45c29.01,96.3 117.66,162.21 218.25,162.21l1033.47 -0.01c100.59,0 189.24,-65.92 218.25,-162.21l343.86 -1142.44 1050.99 564.71c88.58,47.6 197.89,31.5 269.02,-39.59l730.77 -730.77c71.1,-71.1 87.21,-180.45 39.59,-269.03l-564.71 -1050.99 1142.48 -343.85c96.3,-28.97 162.21,-117.67 162.21,-218.22l0 -1033.5c0,-100.55 -65.91,-189.21 -162.22,-218.21z"/>
    <circle class="fil3" cx="14849.46" cy="12710.59" r="3094.28"/>
    <circle class="fil4" cx="14849.46" cy="12505.46" r="3094.28"/>
    <circle class="fil3" cx="14849.46" cy="12505.46" r="2410.45"/>
    <circle class="fil5" cx="14849.46" cy="12770.43" r="1545.35"/>
    <circle class="fil4" cx="14849.46" cy="12505.46" r="1545.35"/>
    <circle class="fil3" cx="14849.46" cy="12505.46" r="724.77"/>
    <path class="fil5" d="M14849.46 10359.98c1286.54,0 2334.58,1008.7 2403.78,2277.98 2.38,-44.14 6.71,-87.77 6.71,-132.5 0,-1331.28 -1079.21,-2410.45 -2410.45,-2410.45 -1331.25,0 -2410.45,1079.2 -2410.45,2410.45 0,44.73 4.28,88.36 6.71,132.5 69.12,-1269.31 1117.16,-2277.98 2403.7,-2277.98z"/>
    <path class="fil5" d="M14849.46 12045.66c354.89,0 649.05,255.45 711.42,592.3 7.98,-43.06 13.35,-87.09 13.35,-132.5 0,-400.3 -324.51,-724.77 -724.8,-724.77 -400.3,0 -724.81,324.51 -724.81,724.77 0,45.36 5.37,89.4 13.35,132.5 62.44,-336.85 356.6,-592.3 711.49,-592.3z"/>
   </g>
   <g>
    <path class="fil6" d="M15523.86 9775.65c0,0 174.04,-192.6 227.39,-197.23 53.35,-4.62 16.25,607.93 16.25,607.93 0,0 -194.91,-30.17 -211.13,-69.61 -16.22,-39.43 -32.51,-341.09 -32.51,-341.09z"/>
    <polygon class="fil7" points="15352.96,9864.38 15523.86,9775.65 15693.23,10204.88 15528.03,10306.66 "/>
    <polygon class="fil2" points="15613.38,10002.47 15510.48,10262.26 15528.03,10306.66 15693.23,10204.88 "/>
    <path class="fil8" d="M15760.3 8043.25c0,0 -149.76,-87.95 -121.13,-216.08 28.64,-128.14 164.35,-300.01 229.17,-316.6 64.84,-16.59 75.38,33.18 75.38,33.18 0,0 97.98,-64.05 152.27,-36.53 54.28,27.51 16.59,96.86 16.59,96.86 0,0 256.8,-5.04 397.5,93.46 140.7,98.5 211.57,265.34 217.35,458.32 5.78,192.97 -52.53,365.85 -52.53,365.85l-251.28 94.48 -663.32 -572.94z"/>
    <path class="fil9" d="M15946.16 9197.89c0,0 -190.26,286.55 -228.54,377.04 -38.29,90.49 -222.77,1382.46 -222.77,1382.46 0,0 -73.07,2.72 -69.6,51.45 3.47,48.72 -0.11,76.58 -0.11,76.58l-441.91 309.74 233.2 578.44 490.75 -341.58 -150.81 735.32 132.24 -0.01 -99.76 3417.73 1775 0.01 -187.94 -972.17 34.83 -2074.31 31.31 -0.87c0,0 337.59,-1259.02 351.54,-1446.96 13.94,-187.93 -309.75,-1750.62 -393.29,-1858.52 -83.52,-107.9 -571.32,-393.89 -571.32,-393.89l-682.82 159.54z"/>
    <path class="fil10" d="M16813.94 10020.41c0,0 153.16,762.2 190.25,980.3 37.1,218.1 -116.02,245.95 -39.45,296.99 76.58,51.04 76.58,51.04 76.58,51.04 0,0 -127.62,64.98 -113.71,99.76 13.91,34.78 60.33,106.75 60.33,106.75l-242.45 1033.16 22.03 15.59 443.17 134.59 -25.42 1515.03c0,0 -465.25,-459.01 -482.1,-649.42 -16.85,-190.44 -69.94,-484.78 -69.94,-484.78l-141.82 115.69 -290.02 -243.31 41.75 695.76c0,0 -92.79,-287.7 -162.4,-593.98 -69.6,-306.27 -400.97,-422.63 -400.97,-422.63l8.88 -303.62 238.98 11.59 120.64 -241.93 287.71 422.9c0,0 208.81,-55.7 255.23,-60.33 46.42,-4.62 181.9,-436.2 232.49,-658.96 50.59,-222.76 -68.34,-371.26 -13.49,-533.66 54.8,-162.4 73.37,1.42 96.56,-349.6 23.19,-350.96 -162.44,-938.09 -92.83,-936.93z"/>
    <path class="fil2" d="M16595.83 9019.23c0,0 -244.79,346.88 -324.84,611.4 -80.04,264.52 -236.67,1103.3 -236.67,1103.3 0,0 -172.69,-662.85 -146.18,-1075.45 26.5,-412.6 58.01,-460.58 58.01,-460.58l649.68 -178.67z"/>
    <path class="fil7" d="M16027.36 9306.94l-123.81 153.72c0,0 19.2,-230.44 42.61,-262.77 115.58,-159.54 649.68,-178.66 649.68,-178.66l-281.36 493.62 -133.96 -205.91 -153.16 0z"/>
    <path class="fil6" d="M16619.03 8583.03l-23.19 436.2 -415.32 287.71 -153.16 0 -46.49 -126.09c0,0 42.54,-253.45 -11.18,-451.97 -48.62,-179.78 649.34,-145.85 649.34,-145.85z"/>
    <path class="fil11" d="M15969.68 8728.88c38.36,141.78 27.62,311.08 18.38,396.53 388.93,-103.27 627.16,-471.1 627.16,-471.1l3.8 -71.32c-128.47,11.44 -438.07,23.23 -611.31,68.29 -31.09,19.96 -46.75,45.28 -38.03,77.6z"/>
    <path class="fil5" d="M15341.74 9835.97c0,0 -504.65,330.63 -622.99,368.91 -118.33,38.29 -124,-62.63 -184.47,24.35 -60.47,87.02 -76.36,77.85 -150.37,35.12 -74,-42.73 -705.82,-665.05 -792.81,-724.21 -87.01,-59.17 -191.4,-52.2 -191.4,-52.2l-755.27 -93.98c0,0 -201.85,212.32 -292.37,281.92 -90.51,69.6 -271.48,208.82 -240.13,462.9 31.32,254.08 330.62,852.68 330.62,852.68l106.75 955.95 -111.36 914.2 162.4 23.18 -116.02 2900.34 1930.47 0.01 -232.05 -2942.09 112.52 -64.99 -228.02 -803.4 129.41 -356.72 -229.66 -74.6 -62.67 -927.77c0,0 622.99,365.44 765.71,341.1 142.72,-24.34 870.09,-619.52 870.09,-619.52l-198.38 -501.18z"/>
    <path class="fil7" d="M12644.4 9393.96l133.69 57.19c57.98,24.79 105.14,69.57 132.88,126.2l655.76 1337.57 -167.06 -1426.98 -755.27 -93.98z"/>
    <path class="fil6" d="M13318.77 8985.04l6.82 121.13c7.34,130 32.25,258.4 74.04,381.74l0 0 -38.28 139.21 -114.87 24.35 -602.11 -257.55c0,0 97.46,-142.67 38.29,-633.43 -59.14,-490.71 636.11,224.55 636.11,224.55z"/>
    <polygon class="fil7" points="13246.51,9651.5 12690.26,9232.07 12644.4,9393.96 12945.46,9647.7 "/>
    <path class="fil11" d="M12690.22 8831.4c1.9,19.83 3.43,38.7 4.85,57.27 125.79,133.5 452.38,464.46 674.84,498.9 -23.93,-92.05 -38.92,-186.26 -44.29,-281.41l-6.83 -121.13c0,0 -695.24,-715.26 -636.07,-224.55 2.95,24.76 5.37,48.18 7.5,70.92z"/>
    <path class="fil9" d="M13472.4 8290.03c0,0 59.17,-140.25 40.76,-284.21 -18.42,-143.94 -88.92,-255.6 -159.45,-282.04 -70.5,-26.43 -101.04,-8.8 -101.04,-8.8 0,0 -48.8,-188.01 -260.35,-120.45 -211.54,67.56 -343.74,323.16 -522.95,390.75 -179.21,67.59 -249.72,64.65 -249.72,149.84 0,85.19 155.72,154.94 155.72,154.94 0,0 11.75,412.09 223.29,491.42 211.54,79.33 873.74,-491.45 873.74,-491.45z"/>
    <path class="fil6" d="M13218.55 7964.7c0,0 179.21,11.75 214.49,146.9 35.27,135.14 83.66,449.51 70.5,614.04 -10.48,130.74 -55.81,305.56 -193.91,387.8 -138.09,82.25 -418.53,-79.67 -499.39,-126.35 -80.84,-46.67 -102.9,-99.88 -102.9,-99.88 0,0 -100.89,47.98 -140.03,-75.43 -39.15,-123.4 43.09,-178.24 99.88,-166.46 56.82,11.74 56.82,111.66 56.82,111.66l23.79 -10.63c29.82,-13.35 47.12,-44.7 42.46,-77.02 -18.3,-126.91 -57.97,-435.9 -19.23,-490.11 48.95,-68.56 262.46,3.91 362.35,-50.93 99.86,-54.87 85.17,-163.59 85.17,-163.59z"/>
    <polygon class="fil2" points="13126.61,10017.2 13246.51,9651.5 13361.37,9627.12 13453.43,9947.15 13566.73,10914.89 "/>
    <polygon class="fil1" points="13156.17,9927.06 13262.17,10053.48 13276.56,10323.03 13566.73,10914.89 13482.1,10192.21 13420.55,10025.62 13443.92,9914.04 13361.37,9627.12 13246.51,9651.5 "/>
    <path class="fil12" d="M13020.28 12144.64c81.2,13.91 322.52,48.73 482.62,25.54 160.09,-23.18 310.9,83.51 417.63,136.9 106.74,53.35 268.73,97.56 268.73,97.56l-89.4 -314.96c-0.04,0 -1105.12,-323.24 -1216.49,-397.47 -111.36,-74.22 -440.86,-700.72 -440.86,-700.72l106.74 955.96c176.39,197.16 389.83,183.25 471.03,197.19z"/>
    <path class="fil12" d="M14647.92 10957.39c-105.89,-64.65 -226.68,-212.51 -402.5,-432.32 -222.76,-278.43 -512.78,-679.85 -512.78,-679.85l171.68 770.33c0,0.03 568.48,333.41 743.6,341.84z"/>
    <path class="fil12" d="M13966.99 11543.35c0,0 -574.3,-148.16 -581.27,-203.86 -6.96,-55.7 -27.84,-74.82 -62.63,-60.92 -34.82,13.91 1.75,0 -24.35,-64.39 -26.1,-64.38 -66.14,15.66 -104.43,-66.14 -38.28,-81.8 -469.87,-918.82 -487.24,-993.64 -17.37,-74.82 271.49,335.88 314.96,443.73 43.51,107.9 262.77,556.85 377.64,636.93 114.86,80.04 563.33,249.05 563.33,249.05l3.99 59.24z"/>
    <path class="fil12" d="M12600.34 12884.8c0,0 236.67,23.19 494.21,11.6 257.55,-11.6 364.28,-34.83 364.28,-34.83l129.93 -301.65c0,0 157.67,229.7 235.44,264.52 77.77,34.82 471.06,-46.41 471.06,-46.41l-112.52 64.98 7.34 92.99c0,0 -87.39,108.9 -181.34,202.85 -93.99,93.98 -229.7,174.03 -229.7,174.03l-174.03 1145.06 0 -1315.59c0,0 -135.74,-6.97 -341.09,163.6 -205.36,170.53 -379.35,254.08 -501.19,372.42 -121.8,118.33 -204.34,254.38 -204.34,254.38l41.95 -1047.95z"/>
    <path class="fil13" d="M13262.17 10053.48l158.38 -27.85c0,0 -61.63,41.76 -83.89,128.78 -22.25,87.02 53.65,400.6 53.65,400.6l-113.74 -232.01 -14.4 -269.52z"/>
    <polygon class="fil13" points="13246.51,9651.5 13214.63,9996.81 13156.17,9927.06 "/>
    <path class="fil14 str0" d="M13224.44 7891.26c0,0 -25.79,-214.49 -220.03,-114.57 -194.25,99.88 -302.92,287.93 -658.41,305.56"/>
    <path class="fil14 str0" d="M13112.78 7964.7c0,0 -58.75,55.81 -290.84,99.89"/>
    <path class="fil14 str0" d="M12704.43 8292.79c0,0 -156.71,103.79 -268.37,90.11"/>
    <path class="fil14 str0" d="M12704.43 8447.51c0,0 -107.75,88.14 -207.63,84.22"/>
    <path class="fil14 str0" d="M12684.82 8140c0,0 -148.88,48.96 -268.32,35.27"/>
    <path class="fil14 str0" d="M13282.19 7807.04c0,0 150.8,11.74 182.15,129.25"/>
    <path class="fil6" d="M15760.3 8043.25c0,0 -50.59,549.99 19.76,712.81 70.35,162.8 114.95,197.71 223.47,187.64 108.57,-10.06 255.32,-64.24 375.93,-142.64 120.6,-78.4 152.78,-144.72 152.78,-144.72 0,0 62.3,64.31 138.69,-6.04 76.4,-70.35 74.38,-170.87 0,-223.14 -74.38,-52.26 -130.67,72.37 -130.67,72.37l-90.45 30.16c0,0 56.3,-416.11 -4.03,-486.46 -60.32,-70.36 -203.03,-90.45 -301.54,-20.1 -98.51,70.38 -301.24,67.85 -383.94,20.12z"/>
    <path class="fil5" d="M15891.91 9912.59c28.74,384.97 142.38,821.29 142.38,821.29 0,0 101.07,-541.19 182.31,-891.23l-54.69 -217.85 110.66 -176.31 -92.09 -141.55 -153.16 0 -92.98 115.42 53.54 216.35 -95.97 273.88 0 0z"/>
    <path class="fil7" d="M16356.26 10166.6c0,0 106.14,-252.33 135.74,-252.33 29.61,0 103.83,177.5 103.83,177.5 0,0 64.99,-41.76 87.58,-29.61 22.63,12.19 8.69,104.43 8.69,104.43l-335.84 0.01z"/>
    <path class="fil6" d="M16718.8 12796.63c0,0 -71.92,171.69 -109.06,243.64 -37.13,71.92 -125.3,167.06 -118.33,194.92 6.97,27.85 122.96,0 122.96,0 0,0 -6.97,122.96 18.57,266.82 25.54,143.88 52.19,158.94 76.58,150.81 24.35,-8.13 25.54,-30.16 25.54,-30.16 0,0 18.57,32.5 47.57,31.91 29.01,-0.6 38.28,-30.76 38.28,-30.76 0,0 20.88,24.35 51.04,18.57 30.17,-5.81 84.71,-91.08 100.36,-143.28 15.66,-52.2 29.61,-85.26 29.61,-85.26 0,0 -40.04,130.52 -29.61,156.62 10.44,26.1 73.67,5.81 110.14,-106.41 25.95,-79.89 56.93,-199.86 67.36,-323.42 10.44,-123.55 5.22,-211.73 5.22,-211.73 0,0 -165.94,-216.97 -436.23,-132.27z"/>
    <path class="fil7" d="M17210.7 12738.62c0,0 -23.19,-60.33 -208.82,-99.76 -185.63,-39.45 -234.35,-34.83 -234.35,-34.83l-48.73 192.6c0,0 116.02,2.31 245.95,39.45 129.93,37.14 190.26,92.8 190.26,92.8l55.69 -190.26z"/>
    <path class="fil11" d="M16614.41 13235.15c0,0 5.84,-128.44 18.82,-243.3 -8.57,18.38 -16.62,35.11 -23.49,48.39 -2.05,3.95 -4.69,8.17 -7.01,12.24 -1.56,39.33 -7.3,106.81 -28.93,136.86 -15.62,21.69 -44.21,41.23 -68.97,55.36 31.62,8.87 109.58,-9.55 109.58,-9.55z"/>
    <g>
     <path class="fil11" d="M17025.07 13501.98c-24.38,-32.48 11.59,-165.91 11.59,-165.91 0,0 -19.08,48.24 -41.12,99.39 -10.82,38.22 -31.06,115.54 -23.27,134.96 8.61,21.51 52.87,10.59 88.62,-56.26 -11.06,3.55 -24.41,3.03 -35.82,-12.18z"/>
     <path class="fil11" d="M16984.88 13459.93c-19.61,44.25 -39.52,85.22 -49.15,93.13 -22.4,18.39 -52.19,22.03 -69.6,-8.13 -17.41,-30.16 64.99,-236.67 47.57,-232.01 -17.41,4.66 -80.19,207.7 -82.05,222.76 -1.87,15.1 -20.07,33.63 -37.44,38.25 -17.41,4.63 -40.6,3.47 -42.91,-30.16 -2.31,-33.63 34.83,-278.43 19.73,-278.43 -15.07,0 -37.14,227.39 -37.14,227.39 0,0 -4.62,53.35 -47.57,56.85 -25.38,2.05 -41.64,-18.12 -50.85,-35.01 24.76,131.16 50.48,146.15 74.04,138.28 24.35,-8.13 25.54,-30.16 25.54,-30.16 0,0 18.57,32.51 47.57,31.91 29.01,-0.59 38.28,-30.76 38.28,-30.76 0,0 20.88,24.35 51.05,18.57 30.16,-5.81 84.7,-91.08 100.36,-143.27 4.44,-14.98 8.65,-27.77 12.57,-39.21z"/>
    </g>
    <path class="fil10" d="M15130.64 11760.82c0,0 370.44,-160.28 369.06,-213.07 -1.38,-52.79 -138.28,-99.2 -105.77,-178.09 32.47,-78.89 176.35,53.35 208.82,0 32.47,-53.35 -122.96,-190.26 -102.08,-236.67 20.88,-46.42 97.46,48.72 129.93,27.84 32.47,-20.87 104.42,-714.63 104.42,-714.63 0,0 24.68,901.08 24.68,970.72 0,69.64 -52.5,215.12 -52.5,215.12l-490.75 341.58 -85.81 -212.8z"/>
    <path class="fil11" d="M15110.85 11973.62c0,0 -134.59,173.33 -215.8,266.16 -81.2,92.8 -225.07,197.82 -291.21,196.07 -66.14,-1.75 -59.16,-107.89 -59.16,-107.89 0,0 -81.8,67.85 -147.9,31.31 -66.09,-36.53 -33.06,-106.14 -33.06,-106.14 0,0 -52.2,38.29 -106.14,17.41 -53.95,-20.88 -27.85,-137.45 -27.85,-137.45 0,0 -34.04,42.53 -70.27,40.6 -36.28,-1.94 -117.67,-23.19 -67.18,-131.08 50.48,-107.9 242.67,-218.85 334.72,-272.01 92.05,-53.17 418.8,-88.21 418.8,-88.21 0,0 305.65,131.82 265.05,291.23z"/>
    <path class="fil6" d="M14372.43 11691.02c0,0 83.74,-83.62 128.18,-91.64 44.44,-8.01 190.26,32.66 190.26,32.66l55.7 190.07c0,0 141.52,62.63 194.92,78.88 53.39,16.26 179.81,100.92 183.31,141.53 3.5,40.6 -69.6,48.72 -107.9,34.82 -38.28,-13.91 -107.56,-53.91 -107.56,-53.91 0,0 -110.54,-20.32 -126.76,1.71 -16.25,22.04 226.24,106.75 233.2,125.31 6.97,18.57 10.14,46.97 -21.17,77.43 -31.32,30.46 -84.41,27.85 -84.41,27.85 0,0 -11.3,25.23 -51.34,46.11 -40.04,20.88 -80.04,13.05 -80.04,13.05 0,0 -31.01,36.24 -108.75,33.93 -77.73,-2.31 -447.83,-240.47 -447.83,-240.47l150.19 -417.33z"/>
    <path class="fil11" d="M14690.9 11632.05c0,0 -41.01,-11.41 -86.13,-20.95l-71.65 153.04 165.65 -105.25 -7.87 -26.84z"/>
    <path class="fil11" d="M14480.03 12000.33c0,0 61.18,63.82 156.92,19.94 95.7,-43.88 134,-127.39 134,-127.39 0,0 111.62,20.17 148.04,-37.77 36.42,-57.94 -203.71,-122.32 -203.71,-122.32l-235.25 267.54z"/>
    <path class="fil6" d="M14891.52 11543.35c0,0 -68.38,-34.49 -107.82,-18.23 -39.45,16.25 -215.79,153.16 -250.57,238.98 -34.82,85.86 -40.6,190.25 -55.7,220.41 -15.1,30.15 89.33,60.32 142.67,4.62 53.35,-55.7 112.78,-159.16 112.78,-159.16 0,0 202.56,89.48 279.55,-41.01 76.98,-130.44 -120.91,-245.61 -120.91,-245.61z"/>
    <path class="fil11" d="M14994.56 12227.85c8.05,-7.83 13.76,-15.5 17.75,-22.89 -15.41,9.54 -39.19,20.88 -66.18,20.88 -46.42,0 -212.32,-82.36 -219.26,-73.07 -6.96,9.28 183.32,102.97 183.32,102.97 0,0 53.02,2.58 84.37,-27.89z"/>
    <path class="fil11" d="M14858.82 12301.82c3.69,-1.93 6,-3.95 9.2,-5.93 -14.54,0.49 -32.77,-0.71 -55.33,-6.26 -66.14,-16.26 -163.59,-96.04 -175.19,-84.56 -11.59,11.47 141.27,109.79 141.27,109.79 0,0 40,7.84 80.05,-13.04z"/>
    <path class="fil11" d="M14736.94 12339.55c-21.37,-4.66 -46.27,-11.3 -75.09,-20.91 -95.59,-31.88 -334.86,-190.03 -424.87,-251.54l-14.84 41.23c0,0 370.1,238.16 447.83,240.47 28.35,0.86 50.31,-3.47 66.97,-9.25z"/>
    <path class="fil6" d="M14242.76 12130.4c0,0 39.15,-6.08 67.86,6.08 28.7,12.18 64.38,60.92 53.94,87.02 -10.44,26.09 -66.89,30.19 -103.53,9.57 -36.64,-20.61 -38.99,-90.66 -18.27,-102.67z"/>
    <path class="fil6" d="M14391.56 12235.68c0,0 31.32,-25.23 78.3,0 46.97,25.24 58.31,58.57 43.5,80.6 -14.8,22.04 -53.94,26.4 -93.99,-5.77 -39.97,-32.17 -40.15,-59.2 -27.81,-74.83z"/>
    <path class="fil6" d="M14574.28 12323.56c0,0 39.15,-15.66 81.8,5.22 42.65,20.88 33.07,48.73 0,63.53 -33.07,14.8 -106.15,-30.46 -81.8,-68.75z"/>
    <path class="fil7" d="M14191.54 11632.05l180.89 58.97c0,0 -66.14,257.55 -106.13,339.34 -40.05,81.8 -55.18,90.56 -55.18,90.56l-179.74 -50.51 160.16 -438.36z"/>
    <path class="fil7" d="M15001.91 11441.53l-120.79 65.03c0,0 53.35,197.22 102.08,299.3 48.72,102.09 127.62,167.74 127.62,167.74l85.63 -49.44 -194.54 -482.63z"/>
    <path class="fil2" d="M15020.62 11870.28c43.69,64.31 90.26,103.34 90.26,103.34l85.64 -49.43 -54.1 -134.18 0 0 -121.8 80.27z"/>
    <path class="fil2" d="M14079.06 11939.78l-47.72 130.6 179.73 50.52c0,0 15.17,-8.76 55.18,-90.56 3.92,-8.02 8.13,-18.12 12.49,-29.08l-199.68 -61.48z"/>
    <path class="fil2" d="M17074.25 12878.06c54.31,26.91 80.75,50.82 80.75,50.82l55.7 -190.26c0,0 -11.82,-29.98 -83.63,-61.48l-52.82 200.92z"/>
    <circle class="fil15" cx="13932.73" cy="11932.92" r="46.98"/>
    <circle class="fil15" cx="13799.33" cy="11892.8" r="46.98"/>
    <circle class="fil15" cx="13665.9" cy="11852.69" r="46.98"/>
    <polygon class="fil12" points="16027.36,9306.94 15947.87,9476.87 15934.38,9422.36 "/>
    <path class="fil12" d="M16180.51 9306.94l32.59 160.09 -90.6 157.77 -85.86 0c0,0 78.89,90.49 104.43,185.63 25.54,95.15 -2.31,387.48 -2.31,387.48l77.92 -355.26 -54.69 -217.85 110.66 -176.31 -92.14 -141.55z"/>
    <line class="fil14 str1" x1="16544.28" y1="8137.73" x2="16680.95" y2= "8137.73" />
    <line class="fil14 str1" x1="16544.28" y1="8255.32" x2="16662.87" y2= "8255.32" />
    <circle class="fil10" cx="16056.36" cy="11032.06" r="45.26"/>
    <circle class="fil10" cx="16056.36" cy="11486.8" r="45.26"/>
   </g>
   <rect class="fil15" x="6698.07" y="8437.74" width="1952.36" height="3728.23"/>
   <rect class="fil16" x="20297.68" y="7471.46" width="1952.36" height="4950.83"/>
   <g>
    <path class="fil6" d="M11750.34 16303.78c0,0 -178.1,298.78 82.88,531.79 260.97,233.02 764.28,-373.53 764.28,-373.53l-556.32 -321.19 -290.84 162.93z"/>
    <path class="fil11" d="M12597.5 16462.04l-556.33 -321.19 -290.83 162.93c0,0 -45.34,76.17 -56.71,181.52 32.88,15.07 75.68,28.04 128.7,29.57 133.58,3.85 220.59,-44.21 360.4,0 82.73,26.17 167.4,93.28 222.95,143.84 112.18,-100.86 191.82,-196.67 191.82,-196.67z"/>
    <path class="fil6" d="M17570.17 13766.57c0,0 -292.18,-65.8 -546.96,-196.29 -254.76,-130.49 -503.32,-180.19 -671.09,-198.83 -167.77,-18.64 -991.07,-180.19 -1289.33,-59.02 -298.26,121.17 904.09,2861.42 904.09,2861.42l1584.5 121.16c0,0 533.25,-149.13 667.42,-363.5 134.15,-214.41 -648.63,-2164.94 -648.63,-2164.94z"/>
    <path class="fil11" d="M16567.92 14819.8c0,0 261.12,174.92 424.23,151.62 163.11,-23.3 265.64,-74.75 265.64,-74.75l-65.24 233.2c0,0 186.41,363.5 293.59,493.99 107.19,130.49 209.38,189.51 209.38,189.51 0,0 112.18,-31.06 149.47,-212.81 37.28,-181.75 87.27,-625.48 87.27,-625.48l286.55 956.36c0,0 -58.04,97.05 -194.39,167.77 -136.34,70.72 -280.96,131.12 -280.96,131.12l-1175.54 -1410.53z"/>
    <polygon class="fil7" points="18677.08,13133.25 17551.38,13703.86 18269.06,16099.25 19321.17,15677.02 "/>
    <path class="fil2" d="M19092.63 14774.46l-62.94 306.76c-38.21,186.29 -171.34,338.93 -350.79,402.05l-537.72 189.21 127.84 426.73 1052.11 -422.19 -228.5 -902.56z"/>
    <path class="fil6" d="M12840.99 13742.04c0,0 379.42,-146.93 627.95,-209.08 248.56,-62.15 832.63,-472.26 1000.4,-528.18 167.77,-55.92 894.78,279.62 894.78,279.62l-62.15 987.98c0,0 24.86,74.56 136.71,111.85 111.85,37.28 795.35,329.31 981.76,360.4 186.41,31.09 714.59,590.29 845.07,758.06 130.49,167.77 472.25,646.22 490.9,770.51 18.64,124.3 -174,267.2 -236.12,316.9 -62.12,49.7 -211.27,0 -211.27,0 0,0 -195.73,357.28 -419.43,385.24 -223.69,27.97 -363.5,-27.96 -363.5,-27.96 0,0 -102.53,237.68 -335.54,321.56 -233.01,83.89 -438.07,0 -438.07,0 0,0 -195.73,233.02 -433.4,288.94 -237.68,55.92 -1803.5,-568.3 -2390.73,-796.91 -587.23,-228.61 -852.12,-471.62 -852.12,-471.62l764.76 -2547.31z"/>
    <path class="fil11" d="M12658.42 15859.56c-164.57,-428.41 -190.03,-876.36 -190.03,-876.44l-392.17 1306.26c0,0 264.85,243.01 852.12,471.62 587.27,228.61 2153.05,852.83 2390.73,796.91 21.84,-5.15 43.17,-12.19 64.19,-19.98 -657.05,-453.16 -2590.7,-1329.18 -2724.84,-1678.37z"/>
    <path class="fil11" d="M15364.14 13284.43c0,0 -54.77,-25.28 -137.5,-60.7 -224.88,55.56 -711.79,182.39 -839.63,268.81 -167.77,113.45 -828.78,864.98 -828.78,864.98l1800.47 -986.97 5.44 -86.12z"/>
    <polygon class="fil5" points="5528.89,9876.58 12182.73,13284.43 10915.13,16360.22 5528.89,14750.68 "/>
    <path class="fil7" d="M12096.95 13492.55l756.86 164.72c0,0 -149.13,1043.9 -378.41,1687.02 -155.81,437.02 -432.48,1015.94 -432.48,1015.94l-1044.72 -201.54 1098.75 -2666.14z"/>
    <path class="fil9" d="M24170.03 9879.29l-5518.82 3119.22c0,0 211.27,1118.54 360.4,1677.78 149.13,559.23 397.69,1255.18 397.69,1255.18l4760.73 -1733.43 0 -4318.75z"/>
    <path class="fil6" d="M15501.41 13270.08c0,0 -359.4,-4.29 -704.26,126.2 -344.86,130.49 -358.84,158.45 -461.37,251.66 -102.52,93.2 -335.54,363.5 -526.61,512.63 -191.07,149.13 -307.58,223.69 -307.58,279.61 0,55.93 188.09,342.85 478.52,332.19 290.43,-10.63 681.89,-280.92 681.89,-280.92l549.92 -191.07c0,0 678.46,337.59 1122.16,422.78 443.69,85.19 -832.67,-1453.08 -832.67,-1453.08z"/>
    <path class="fil11" d="M13523.4 14496.97c0,0 229.85,157.59 500.14,152.93 270.3,-4.66 456.71,-163.11 535.94,-242.34 79.22,-79.22 167.77,-237.67 167.77,-237.67l0 149.13c0,0 349.52,-13.98 615.15,-149.13 265.64,-135.15 433.41,-405.45 433.41,-405.45 0,0 -9.32,163.11 -55.92,298.26 -46.61,135.15 -18.64,279.62 130.49,391.47 149.12,111.84 425.08,256.53 425.08,256.53l-1029.39 -413.42 -584.1 194.17c0.03,0 -655.39,609.08 -1138.57,5.52z"/>
    <path class="fil11" d="M16889.62 16975.38c46.16,-5.78 90.97,-26.03 133.25,-53.8 -89.74,4.17 -244.13,-5.52 -454.96,-81.35 -271.04,-97.53 -1411.92,-545.25 -1411.92,-545.25l1370.13 652.44c0,0 139.81,55.92 363.5,27.96z"/>
    <path class="fil11" d="M15673.33 17349.92c49.66,-45.98 79.15,-80.94 79.15,-80.94l-916.51 -343.3 837.36 424.24z"/>
    <path class="fil11" d="M15302.03 15114.36c0,0 -233.5,27.97 -337.33,12.42 -103.83,-15.54 -330.62,-217.47 -330.62,-217.47 0,0 287.03,155.35 381.21,133.59 94.17,-21.77 94.14,-208.15 94.14,-208.15 0,0 347.92,245.42 192.6,279.61z"/>
    <path class="fil11" d="M14323.37 15766.8c0,0 434.97,239.24 534.37,264.08 99.43,24.86 174,12.42 174,-65.25 0,-77.66 -67.04,-133.58 -67.04,-133.58 0,0 8.02,96.3 -106.93,99.43 -114.97,3.09 -534.4,-164.68 -534.4,-164.68z"/>
    <path class="fil11" d="M16190.58 17268.98c1.15,-0.41 2.16,-0.97 3.32,-1.38 -356.76,18.68 -697.3,-94.47 -697.3,-94.47 0,0 91.65,75.19 217.17,137.6 24.64,-25.13 38.74,-41.75 38.74,-41.75 0,0 205.05,83.88 438.07,0z"/>
    <path class="fil11" d="M14634.04 16543.5l-80.79 0 -394.74 -227.91c0,0 307.76,271.42 369.91,290.06 62.14,18.64 105.62,-62.15 105.62,-62.15z"/>
    <path class="fil11" d="M17279.64 16639.09c0,0 -10.97,-123.52 -144.54,-226.04 -133.59,-102.53 -1491.29,-887.95 -1491.29,-887.95l879.23 151.62c0,0 161.54,161.55 242.33,226.79 80.79,65.25 220.6,133.59 220.6,133.59 0,0 108.75,187.97 180.97,313.8 72.22,125.83 142.16,239.24 142.16,239.24l-29.46 48.95z"/>
    <path class="fil6" d="M12658.42 16645.28c0,0 -0.38,190.29 195.36,286.59 195.73,96.3 402.42,67.29 468.41,-61.11 65.96,-128.4 -36.57,-347.32 -182.57,-408.73 -145.99,-61.41 -418.68,-97.11 -481.2,183.25z"/>
    <path class="fil11" d="M12888.79 16859.65c-195.74,-96.3 -195.36,-286.58 -195.36,-286.58 3.28,-14.66 7.42,-28 11.81,-40.98 -20.13,30.32 -36.53,67.11 -46.79,113.19 0,0 -0.37,190.29 195.36,286.59 195.73,96.29 402.43,67.29 468.42,-61.11 6.64,-12.93 11.15,-27 14.5,-41.5 -81.46,101.46 -269.1,118.38 -447.94,30.39z"/>
    <path class="fil6" d="M13866.67 16729.91c0,0 -250.95,-91.12 -397.69,24.87 -146.74,115.98 -118.07,335.54 96.3,441.16 214.38,105.62 413.21,49.7 469.13,-102.53 55.92,-152.22 -6.21,-304.44 -167.74,-363.5z"/>
    <path class="fil11" d="M13595.59 17121.38c-145.18,-71.55 -204.9,-195.33 -182.94,-303.78 -75.99,120.6 -27.48,289.61 152.63,378.34 214.38,105.62 413.21,49.7 469.13,-102.53 4.25,-11.52 7.57,-23.04 10.47,-34.55 -73.98,121.01 -255.1,158.22 -449.29,62.52z"/>
    <path class="fil6" d="M14012.66 17223.9c0,0 -31.06,183.32 257.88,298.26 187.31,74.53 354.18,34.18 407.01,-74.56 52.82,-108.75 -49.7,-323.13 -186.42,-382.15 -136.71,-59.02 -375.94,-96.29 -478.47,158.45z"/>
    <path class="fil11" d="M14295.41 17450.73c-229.06,-91.12 -256.87,-224.88 -258.62,-276.56 -8.61,15.28 -16.78,31.57 -24.08,49.73 0,0 -31.06,183.32 257.87,298.26 187.31,74.53 354.18,34.18 407.01,-74.56 7.39,-15.17 11.44,-32.56 13.08,-51.15 -62.92,93.17 -220.15,123.96 -395.26,54.28z"/>
    <path class="fil12" d="M11635.8 14611.53l-678.65 851.38c-170.76,214.22 -457.16,298.97 -716.98,212.14l-4711.28 -1653.7 0 729.28 5386.24 1609.55 720.67 -1748.65z"/>
    <path class="fil2" d="M11327.81 15358.9l0 0 -329.61 799.78 1044.72 201.54c0,0 81.77,-171.16 181.42,-397.46l-491.23 -172.47c-197.26,-69.27 -348.48,-230.22 -405.3,-431.39z"/>
    <path class="fil10" d="M19146.13 15138.93l0 0c129.89,419.39 263.14,792.56 263.14,792.56l4760.76 -1733.45 0 -869.58 -3926.23 1685.72c-345.69,148.43 -727.46,191.82 -1097.67,124.75l0 0z"/>
    <g>
     <circle class="fil15" cx="10107.56" cy="15384.85" r="317.09"/>
     <circle class="fil17" cx="10107.56" cy="15384.85" r="191.26"/>
    </g>
    <g>
     <circle class="fil15" cx="9227.63" cy="15067.76" r="317.09"/>
     <circle class="fil17" cx="9227.63" cy="15067.76" r="191.26"/>
    </g>
    <g>
     <circle class="fil15" cx="8347.65" cy="14750.68" r="317.09"/>
     <circle class="fil17" cx="8347.65" cy="14750.68" r="191.26"/>
    </g>
   </g>
   <g>
    <path class="fil4" d="M14187.29 5927.86c0,0 83.89,-69.91 60.59,-177.09 -23.31,-107.19 -51.27,-251.66 -60.59,-302.92 -9.32,-51.26 181.75,-116.51 247,-37.28 65.24,79.22 69.9,219.37 111.84,240.16 41.95,20.81 382.15,-184.24 442.73,-151.62 60.59,32.62 116.51,619.82 88.55,685.06 -27.96,65.25 -389.04,209.72 -441.54,209.72 -52.5,0 -154.98,-102.53 -276.15,-55.93 -121.16,46.61 -172.43,-410.1 -172.43,-410.1z"/>
    <path class="fil5" d="M14210.41 5842.55l205.65 512.67c16.33,40.75 -3.06,87.05 -43.55,103.98l-229.96 96.19c-40.64,17 -87.4,-1.9 -104.77,-42.35l-220.11 -511.59c-17.86,-41.53 2.05,-89.62 44.06,-106.37l244.38 -97.27c41.18,-16.36 87.81,3.63 104.3,44.74z"/>
   </g>
   <g>
    <polygon class="fil4" points="10492.72,6824.53 9890.54,7151.95 9507.5,8448.02 10848.26,8844.3 11368.67,7083.42 "/>
    <path class="fil12" d="M10795.46 7395.1l-455.85 -134.74c-20.99,-6.19 -32.96,-28.22 -26.77,-49.21l0 0c6.18,-20.99 28.22,-32.96 49.21,-26.77l455.85 134.74c20.99,6.18 32.96,28.22 26.77,49.21l0 0c-6.19,20.99 -28.22,32.99 -49.21,26.77z"/>
    <path class="fil12" d="M10926.73 7781.35l-907.22 -268.13c-21,-6.19 -32.96,-28.22 -26.78,-49.22l0 0c6.19,-20.99 28.22,-32.96 49.22,-26.77l907.23 268.13c20.99,6.19 32.95,28.22 26.77,49.21l0 0c-6.23,21 -28.27,33 -49.22,26.78z"/>
    <path class="fil12" d="M10826.33 8121.02l-907.23 -268.13c-20.99,-6.18 -32.96,-28.22 -26.77,-49.21l0 0c6.19,-20.99 28.22,-32.96 49.21,-26.77l907.23 268.13c20.99,6.19 32.96,28.22 26.77,49.21l0 0c-6.18,20.99 -28.22,32.96 -49.21,26.77z"/>
    <path class="fil12" d="M10725.93 8460.67l-907.23 -268.14c-21,-6.18 -32.96,-28.21 -26.78,-49.21l0 0c6.19,-20.99 28.22,-32.96 49.22,-26.77l907.27 268.14c20.99,6.19 32.96,28.22 26.77,49.21l0 0c-6.23,20.99 -28.26,33 -49.25,26.77z"/>
    <polygon class="fil2" points="10355.34,7289.34 10492.72,6824.53 9890.54,7151.95 "/>
   </g>
   <g>
    <path class="fil12" d="M19007.44 11660.53l0 0c-106.51,-21.32 -175.53,-124.96 -154.2,-231.45l99.58 -497.16 385.65 77.25 -99.58 497.16c-21.32,106.48 -124.97,175.52 -231.45,154.2z"/>
    <path class="fil4" d="M19127.67 11513.53l-174.63 -34.98c-160.94,-32.25 -265.3,-188.83 -233.05,-349.78l79.82 -398.58 757.43 151.7 -79.82 398.59c-32.17,160.94 -188.79,265.26 -349.75,233.05z"/>
    <circle class="fil15" cx="19243.55" cy="10481.59" r="624.48"/>
    <path class="fil14 str2" d="M18795.08 11047.68c0,0 244.09,244.69 637.46,127.66"/>
    <path class="fil14 str2" d="M18758.58 11229.92c0,0 244.08,244.69 637.46,127.66"/>
    <path class="fil17" d="M19408.75 10574.5c-53.95,-8.35 -115.83,19.5 -129.74,88.95l-22.44 112.11c-35.98,-4.81 -87.69,-14.36 -137.76,-29.9l21.99 -109.87c13.91,-69.41 -32.5,-118.96 -85.49,-132.05 -49.7,-11.96 -111.62,6 -131.76,74.68 -2.01,6.97 -3.84,14.24 -5.37,21.85 -7.23,36.05 0.41,69.53 22.71,99.47 25.91,34.86 70.02,60.81 117.88,79.97l-55.73 278.2c16.14,6.71 32.73,12.68 49.62,18.08l54.21 -270.74c30.42,7.42 82.32,18.46 139.1,23.19l-55.15 275.21c17.68,1.53 35.27,2.42 52.76,2.42l55.18 -275.44c51.7,-0.15 102.67,-7.95 140.11,-30.64 32.09,-19.46 52.04,-47.57 59.24,-83.59 1.53,-7.64 2.68,-15.1 3.47,-22.33 7.87,-71.1 -43.28,-111.78 -92.83,-119.57zm-339.56 153.11c-36.8,-15.58 -68.57,-35.11 -86.46,-59.12 -13.24,-17.83 -17.64,-36.8 -13.35,-58.05 1.23,-6.11 2.68,-12 4.28,-17.49 10.78,-36.75 41.72,-44.14 66.18,-39.26 1,0.19 2.05,0.41 2.98,0.68 28.97,7.15 54.66,31.87 46.79,71.09l-20.42 102.15zm342.66 27.71c-25.76,15.62 -62.6,22.07 -102.6,23.04l20.95 -104.64c7.86,-39.22 41.08,-52.16 70.53,-47.61 1.01,0.15 2.02,0.34 3.06,0.52 24.45,4.89 50.14,23.61 45.92,61.74 -0.63,5.78 -1.56,11.71 -2.79,17.78 -4.25,21.31 -15.69,37.43 -35.07,49.17z"/>
    <ellipse class="fil18" transform="matrix(0.738722 -0.492215 0.492215 0.738722 19588.1 10268.2)" rx="182.11" ry="241.46"/>
    <ellipse class="fil18" transform="matrix(0.738722 -0.492215 0.492215 0.738722 18850.7 10770.8)" rx="107.69" ry="142.8"/>
    <path class="fil18" d="M19386.31 9768.75l0 0c-14.13,-2.83 -23.3,-16.59 -20.47,-30.72l33.4 -166.73c2.83,-14.13 16.59,-23.3 30.72,-20.47l0 0c14.14,2.84 23.3,16.6 20.47,30.73l-33.4 166.72c-2.8,14.13 -16.56,23.31 -30.72,20.47z"/>
    <path class="fil18" d="M18940.04 9820.99l0 0c-13.09,6 -28.59,0.26 -34.64,-12.83l-70.99 -154.5c-6,-13.08 -0.25,-28.59 12.83,-34.63l0 0c13.09,-6 28.59,-0.26 34.64,12.82l70.99 154.5c6.03,13.09 0.29,28.59 -12.83,34.64z"/>
    <path class="fil18" d="M18609.72 10125.54l0 0c-7.05,12.56 -22.97,17.04 -35.54,10l-148.23 -83.29c-12.56,-7.05 -17.03,-22.97 -9.99,-35.54l0 0c7.04,-12.56 22.96,-17.03 35.53,-9.99l148.23 83.29c12.61,7.05 17.05,22.94 10,35.53z"/>
    <path class="fil18" d="M18521.46 10566.08l0 0c1.68,14.31 -8.57,27.28 -22.89,28.96l-168.89 19.76c-14.32,1.68 -27.28,-8.57 -28.96,-22.89l0 0c-1.68,-14.32 8.57,-27.29 22.89,-28.97l168.89 -19.76c14.32,-1.67 27.29,8.58 28.96,22.9z"/>
    <path class="fil18" d="M18709.04 10974.39l0 0c9.76,10.59 9.1,27.1 -1.49,36.87l-125.01 115.24c-10.59,9.76 -27.1,9.1 -36.88,-1.49l0 0c-9.76,-10.59 -9.1,-27.1 1.49,-36.88l125.02 -115.23c10.59,-9.81 27.1,-9.14 36.87,1.49z"/>
    <path class="fil18" d="M19547.07 11142.23l0 0c13.08,-6 28.59,-0.26 34.63,12.83l70.99 154.5c6,13.08 0.26,28.59 -12.83,34.63l0 0c-13.08,6 -28.59,0.26 -34.63,-12.82l-70.99 -154.5c-6.04,-13.12 -0.29,-28.63 12.83,-34.64z"/>
    <path class="fil18" d="M19877.39 10837.68l0 0c7.04,-12.56 22.96,-17.04 35.53,-10l148.23 83.29c12.56,7.05 17.04,22.97 10,35.54l0 0c-7.05,12.56 -22.97,17.03 -35.54,9.99l-148.23 -83.29c-12.6,-7.06 -17.04,-22.97 -9.99,-35.53z"/>
    <path class="fil18" d="M19965.64 10397.11l0 0c-1.68,-14.32 8.57,-27.29 22.89,-28.97l168.89 -19.76c14.32,-1.67 27.29,8.58 28.97,22.9l0 0c1.67,14.31 -8.58,27.28 -22.9,28.96l-168.89 19.76c-14.31,1.68 -27.28,-8.57 -28.96,-22.89z"/>
    <path class="fil18" d="M19778.06 9988.8l0 0c-9.76,-10.59 -9.09,-27.11 1.5,-36.88l125.01 -115.24c10.59,-9.76 27.1,-9.1 36.87,1.49l0 0c9.77,10.59 9.1,27.11 -1.49,36.88l-125.01 115.24c-10.59,9.8 -27.1,9.13 -36.88,-1.49z"/>
   </g>
   <g>
    <path class="fil12" d="M8608.71 7373.85l0 0c-97.53,47.76 -215.34,7.42 -263.1,-90.15l-222.98 -455.4 353.25 -172.96 222.98 455.4c47.75,97.58 7.41,215.35 -90.15,263.11z"/>
    <path class="fil4" d="M8614.9 7184.05l-159.95 78.33c-147.41,72.17 -325.43,11.18 -397.61,-136.23l-178.77 -365.11 693.79 -339.72 178.77 365.11c72.17,147.42 11.22,325.44 -136.23,397.62z"/>
    <circle class="fil15" cx="8079.97" cy="6294.01" r="624.48"/>
    <path class="fil14 str2" d="M8067.7 7016.09c0,0 342.55,46.05 583.87,-285.88"/>
    <path class="fil14 str2" d="M8149.46 7183.04c0,0 342.56,46.04 583.88,-285.89"/>
    <path class="fil17" d="M8267.65 6267.43c-47.95,26.13 -80.16,85.86 -48.99,149.46l50.26 102.68c-31.51,18.05 -78.37,41.91 -127.58,59.96l-49.28 -100.63c-31.13,-63.6 -98.09,-74.75 -148.13,-52.94 -46.75,20.69 -85,72.58 -59.28,139.36 2.61,6.75 5.59,13.65 8.98,20.62 16.19,33.03 42.58,54.96 78.48,65.21 41.76,11.93 92.58,5.74 142.24,-8.08l124.78 254.82c16.89,-4.47 33.7,-9.84 50.4,-15.81l-121.43 -247.96c28.67,-12.56 76.62,-35.35 124.56,-66.11l123.44 252.1c14.95,-9.54 29.49,-19.5 43.4,-30.13l-123.52 -252.28c40.97,-31.54 76.73,-68.67 92.68,-109.46 13.68,-34.98 12.42,-69.42 -3.73,-102.38 -3.42,-7.01 -7.04,-13.6 -10.81,-19.87 -37.01,-61.23 -102.36,-62.47 -146.47,-38.56zm-176.69 327.93c-38.7,10 -75.79,13.8 -104.57,5.56 -21.37,-6.12 -36.35,-18.53 -45.9,-37.99 -2.76,-5.6 -5.14,-11.15 -7.23,-16.52 -13.79,-35.76 6.3,-60.4 28.74,-71.4 0.94,-0.44 1.87,-0.9 2.8,-1.27 27.37,-11.93 62.78,-7.86 80.38,28.03l45.78 93.59zm288.98 -186.22c-11,28.07 -36.32,55.55 -67.52,80.64l-46.94 -95.85c-17.59,-35.91 0.93,-66.4 27.1,-80.68 0.9,-0.49 1.79,-0.97 2.76,-1.42 22.41,-10.96 54.18,-11.71 73.97,21.1 3.02,4.96 5.9,10.25 8.61,15.81 9.62,19.57 10.3,39.33 2.02,60.4z"/>
    <ellipse class="fil18" transform="matrix(0.287695 -0.839739 0.839739 0.287695 8223.89 5915.62)" rx="182.11" ry="241.46"/>
    <ellipse class="fil18" transform="matrix(0.287695 -0.839739 0.839739 0.287695 7943.56 6762.76)" rx="107.69" ry="142.8"/>
    <path class="fil18" d="M7760.27 5641.09l0 0c-12.93,6.33 -28.59,0.96 -34.93,-11.97l-74.75 -152.71c-6.34,-12.93 -0.97,-28.59 11.97,-34.93l0 0c12.93,-6.33 28.59,-0.96 34.93,11.97l74.75 152.71c6.33,12.93 1.01,28.54 -11.97,34.93z"/>
    <path class="fil18" d="M7437.56 5953.7l0 0c-6.75,12.74 -22.56,17.59 -35.31,10.85l-150.24 -79.6c-12.75,-6.75 -17.6,-22.56 -10.85,-35.31l0 0c6.75,-12.74 22.55,-17.59 35.3,-10.84l150.25 79.6c12.75,6.73 17.59,22.54 10.85,35.3z"/>
    <path class="fil18" d="M7360.2 6396.27l0 0c2.01,14.29 -7.9,27.48 -22.19,29.53l-168.33 23.93c-14.28,2.01 -27.47,-7.9 -29.52,-22.18l0 0c-2.02,-14.29 7.9,-27.48 22.18,-29.53l168.33 -23.93c14.31,-2.01 27.51,7.9 29.53,22.18z"/>
    <path class="fil18" d="M7557.79 6799.82l0 0c10.03,10.37 9.77,26.88 -0.59,36.91l-122.14 118.3c-10.37,10.03 -26.88,9.76 -36.91,-0.6l0 0c-10.03,-10.36 -9.76,-26.87 0.6,-36.91l122.13 -118.3c10.37,-10.03 26.88,-9.77 36.91,0.6z"/>
    <path class="fil18" d="M7954.85 7010.16l0 0c14.2,2.5 23.71,16 21.21,30.2l-29.26 167.47c-2.5,14.2 -16,23.71 -30.2,21.21l0 0c-14.2,-2.49 -23.71,-15.99 -21.22,-30.19l29.27 -167.47c2.46,-14.2 16,-23.71 30.2,-21.22z"/>
    <path class="fil18" d="M8722.42 6634.32l0 0c6.75,-12.75 22.56,-17.59 35.3,-10.85l150.25 79.6c12.75,6.75 17.59,22.56 10.85,35.3l0 0c-6.75,12.75 -22.56,17.6 -35.31,10.85l-150.24 -79.6c-12.76,-6.74 -17.61,-22.55 -10.85,-35.3z"/>
    <path class="fil18" d="M8799.78 6191.7l0 0c-2.01,-14.28 7.9,-27.47 22.18,-29.52l168.33 -23.93c14.29,-2.02 27.48,7.9 29.53,22.18l0 0c2.01,14.28 -7.9,27.47 -22.19,29.52l-168.33 23.93c-14.31,2.05 -27.51,-7.9 -29.52,-22.18z"/>
    <path class="fil18" d="M8602.18 5788.2l0 0c-10.03,-10.37 -9.76,-26.88 0.6,-36.91l122.13 -118.3c10.37,-10.03 26.88,-9.76 36.91,0.59l0 0c10.03,10.37 9.77,26.88 -0.59,36.91l-122.14 118.3c-10.36,10 -26.88,9.73 -36.91,-0.59z"/>
    <path class="fil18" d="M8205.13 5577.85l0 0c-14.2,-2.5 -23.71,-16 -21.22,-30.2l29.27 -167.47c2.49,-14.2 15.99,-23.71 30.2,-21.21l0 0c14.2,2.49 23.71,15.99 21.21,30.19l-29.26 167.47c-2.47,14.21 -16,23.72 -30.2,21.22z"/>
   </g>
   <g>
    <path class="fil19" d="M10696.25 10890.62l-3.24 0c-4.81,-56.97 -15.73,-114.2 -35.12,-170.72 -126.87,-370.06 -529.71,-567.25 -899.77,-440.42 -275.29,94.36 -454.58,341.47 -476.35,614.16l-2.54 0 0 52.68 0.78 0c-0.37,77.21 11.22,155.72 37.69,232.94 126.88,370.07 529.71,567.25 899.77,440.42 290.36,-99.51 473.42,-369.02 477.93,-659.18l0.81 0 0 -69.88 0.04 0z"/>
    <circle class="fil15" cx="9987.78" cy="10879.69" r="708.36"/>
    <circle class="fil17" cx="9987.78" cy="10879.69" r="571.01"/>
    <path class="fil19" d="M9802.63 10389.24c298.33,-102.27 623.06,56.67 725.33,355 18.01,52.53 27.47,105.85 29.97,158.64 2.83,-68.82 -6.3,-139.25 -29.97,-208.34 -102.27,-298.33 -427,-457.27 -725.33,-355 -245.81,84.26 -396.57,319.58 -384.98,566.69 9.36,-228.39 155.74,-438.44 384.98,-516.99z"/>
    <g>
     <path class="fil19" d="M10280.26 10941.24c36.2,105.63 -23.83,188.77 -119.68,237.71l44.71 130.42 -132.8 45.52 -45.52 -132.84c-78.48,13.49 -162.77,10.22 -232.52,-13.24l21.1 -162.77c74.04,28.26 186.66,33.44 243.48,13.98 27.18,-9.32 41.8,-24.16 34.93,-44.14 -24.94,-72.77 -298.93,74.75 -366.37,-122.07 -31.53,-91.97 10.56,-177.9 106.89,-233.27l-44.14 -128.81 132.79 -45.52 43.32 126.39c71.84,-14.8 145.89,-15.14 205.43,-0.68l-18.98 163.86c-67.48,-11.74 -166.47,-16.25 -215.27,0.49 -20.81,7.12 -32.22,18.15 -26.44,34.97 24.09,70.35 299.39,-73.19 369.07,130z"/>
    </g>
    <g>
     <path class="fil15" d="M10280.26 10896.99c36.2,105.63 -23.83,188.77 -119.68,237.71l44.71 130.42 -132.8 45.52 -45.52 -132.84c-78.48,13.49 -162.77,10.22 -232.52,-13.24l21.1 -162.77c74.04,28.26 186.66,33.44 243.48,13.98 27.18,-9.32 41.8,-24.16 34.93,-44.14 -24.94,-72.77 -298.93,74.75 -366.37,-122.07 -31.53,-91.97 10.56,-177.9 106.89,-233.27l-44.14 -128.81 132.79 -45.52 43.32 126.39c71.84,-14.8 145.89,-15.14 205.43,-0.68l-18.98 163.86c-67.48,-11.74 -166.47,-16.25 -215.27,0.49 -20.81,7.12 -32.22,18.15 -26.44,34.97 24.09,70.31 299.39,-73.22 369.07,130z"/>
    </g>
   </g>
   <g>
    <path class="fil19" d="M22655.37 7619.47l-3.05 -1.12c15.21,-55.1 24.75,-112.59 26.16,-172.31 9.1,-391.13 -300.56,-715.57 -691.65,-724.7 -290.92,-6.78 -544.7,162.96 -659.53,411.26l-2.35 -0.86 -18.23 49.43 0.71 0.26c-27.07,72.33 -43.36,150.03 -45.26,231.56 -9.1,391.13 300.56,715.56 691.65,724.65 306.84,7.16 571.91,-182.31 676.61,-452.98l0.78 0.3 24.16 -65.49z"/>
    <circle class="fil15" cx="21994.5" cy="7363.97" r="708.36"/>
    <circle class="fil17" cx="21994.5" cy="7363.97" r="571.01"/>
    <path class="fil19" d="M21990.58 6839.75c315.29,7.34 564.9,268.87 557.56,584.17 -1.31,55.52 -10.85,108.8 -26.81,159.2 26.47,-63.6 42.32,-132.8 44.03,-205.83 7.34,-315.3 -242.3,-576.83 -557.56,-584.18 -259.78,-6.04 -482.69,162.51 -557.37,398.36 87.88,-211.02 297.9,-357.4 540.15,-351.72z"/>
    <g>
     <path class="fil19" d="M22247.57 7522.98c-2.61,111.63 -87.68,168.85 -194.58,181.56l-3.2 137.83 -140.33 -3.28 3.28 -140.37c-78.33,-14.5 -156.25,-46.75 -213.55,-92.95l76.17 -145.4c59.68,52.16 163.55,96 223.57,97.42 28.75,0.68 47.58,-8.2 48.06,-29.33 1.8,-76.92 -306.31,-33.33 -301.46,-241.37 2.27,-97.19 71.47,-163.26 181.04,-181.87l3.17 -136.11 140.33 3.28 -3.1 133.59c72.52,11 142.12,36.31 192.94,70.46l-74.53 147.15c-59.24,-34.37 -150.55,-72.89 -202.1,-74.08 -22,-0.52 -36.5,5.9 -36.91,23.68 -1.79,74.38 306.2,35.04 301.2,249.79z"/>
    </g>
    <g>
     <path class="fil15" d="M22262.89 7481.45c-2.61,111.62 -87.68,168.85 -194.57,181.56l-3.21 137.83 -140.33 -3.28 3.28 -140.37c-78.33,-14.51 -156.25,-46.76 -213.55,-92.95l76.17 -145.4c59.68,52.16 163.55,96 223.58,97.42 28.74,0.68 47.57,-8.2 48.05,-29.34 1.8,-76.91 -306.3,-33.33 -301.46,-241.36 2.27,-97.2 71.47,-163.27 181.04,-181.87l3.17 -136.12 140.33 3.29 -3.09 133.58c72.51,11 142.11,36.32 192.93,70.47l-74.53 147.15c-59.24,-34.37 -150.55,-72.89 -202.1,-74.08 -22,-0.52 -36.5,5.89 -36.91,23.67 -1.79,74.38 306.2,35.01 301.2,249.8z"/>
    </g>
   </g>
   <g>
    <path class="fil2" d="M19700.3 7083.64l-311.46 -93.73 153.94 -286.51c5.44,-10.1 7.15,-21.22 6.67,-32.13l0.63 0.37 0 -143.91 -64.38 56.07 -152.93 -152.97c-19.38,-19.39 -49.18,-23.79 -73.33,-10.81l-286.51 153.94 -93.73 -311.46c-7.9,-26.25 -32.07,-44.21 -59.5,-44.21l-281.75 0c-27.4,0 -51.6,17.96 -59.5,44.21l-93.73 311.46 -286.52 -153.94c-24.16,-12.98 -53.94,-8.58 -73.33,10.81l-154.34 154.35 -63.01 -56.07 0 144.02 0.71 -0.44c-0.22,10.47 1.45,21.03 6.64,30.68l153.94 286.52 -311.46 93.73c-26.25,7.9 -44.21,32.06 -44.21,59.5l0 281.74c0,27.4 17.96,51.6 44.21,59.5l311.46 93.73 -104.13 193.83 -56.93 -26.36 0 152.79 0.44 -0.19c0.97,14.66 6.56,28.9 17.49,39.78l199.2 199.2c19.39,19.39 49.18,23.79 73.33,10.82l286.52 -153.94 93.73 311.42c7.9,26.25 32.06,44.21 59.5,44.21l281.73 -0.01c27.4,0 51.6,-17.96 59.5,-44.21l93.73 -311.42 286.51 153.94c24.16,12.97 53.95,8.57 73.33,-10.82l199.21 -199.2c12.41,-12.42 17.89,-29.08 17.4,-45.78l0.78 0.86 0 -143.84 -56.51 24.01 -104.8 -195.06 311.46 -93.73c26.24,-7.9 44.21,-32.06 44.21,-59.5l0 -281.74c0,-27.41 -17.97,-51.6 -44.21,-59.51z"/>
    <path class="fil3" d="M19700.3 6939.18l-311.46 -93.73 153.94 -286.52c12.98,-24.16 8.57,-53.94 -10.81,-73.33l-199.21 -199.2c-19.38,-19.39 -49.17,-23.79 -73.33,-10.81l-286.51 153.94 -93.73 -311.46c-7.9,-26.25 -32.06,-44.22 -59.5,-44.22l-281.74 0c-27.4,0 -51.6,17.97 -59.5,44.22l-93.73 311.46 -286.52 -153.94c-24.16,-12.98 -53.94,-8.58 -73.33,10.81l-199.2 199.2c-19.39,19.39 -23.79,49.18 -10.81,73.33l153.94 286.52 -311.46 93.73c-26.25,7.9 -44.21,32.06 -44.21,59.5l0 281.73c0,27.41 17.96,51.61 44.21,59.51l311.46 93.72 -153.94 286.52c-12.98,24.16 -8.58,53.94 10.81,73.33l199.2 199.2c19.39,19.39 49.18,23.79 73.33,10.81l286.52 -153.94 93.73 311.43c7.9,26.25 32.06,44.21 59.5,44.21l281.74 0.01c27.4,0 51.6,-17.97 59.5,-44.21l93.73 -311.43 286.51 153.94c24.16,12.98 53.95,8.58 73.33,-10.81l199.21 -199.2c19.38,-19.39 23.79,-49.18 10.81,-73.33l-153.94 -286.52 311.46 -93.73c26.24,-7.9 44.21,-32.06 44.21,-59.5l0 -281.74c0,-27.41 -17.97,-51.6 -44.21,-59.5z"/>
    <circle class="fil3" cx="18678.84" cy="7195.46" r="843.51"/>
    <circle class="fil4" cx="18678.84" cy="7139.53" r="843.51"/>
    <circle class="fil3" cx="18678.84" cy="7139.53" r="657.1"/>
    <circle class="fil5" cx="18678.84" cy="7211.79" r="421.29"/>
    <circle class="fil4" cx="18678.84" cy="7139.53" r="421.29"/>
    <circle class="fil3" cx="18678.84" cy="7139.53" r="197.6"/>
    <path class="fil5" d="M18678.84 6554.69c350.71,0 636.41,274.96 655.27,620.97 0.68,-12.05 1.83,-23.93 1.83,-36.13 0,-362.91 -294.19,-657.1 -657.1,-657.1 -362.91,0 -657.1,294.19 -657.1,657.1 0,12.19 1.15,24.08 1.83,36.13 18.86,-346.01 304.55,-620.97 655.27,-620.97z"/>
    <path class="fil5" d="M18678.84 7014.19c96.75,0 176.94,69.65 193.94,161.47 2.17,-11.74 3.66,-23.75 3.66,-36.13 0,-109.12 -88.48,-197.56 -197.6,-197.56 -109.12,0 -197.6,88.48 -197.6,197.56 0,12.38 1.46,24.39 3.66,36.13 17.04,-91.83 97.19,-161.47 193.94,-161.47z"/>
   </g>
   <rect class="fil14" x="10655.36" y="3452.83" width="8388.21" height="1406.07"/>
   <polygon class="fil7" points="16180.51,9306.94 16602.73,8889.49 16628.95,9038.35 16314.47,9512.85 "/>
  </g>
 </g>
</svg>
