<?xml version="1.0" encoding="UTF-8"?>
<!DOCTYPE svg PUBLIC "-//W3C//DTD SVG 1.1//EN" "http://www.w3.org/Graphics/SVG/1.1/DTD/svg11.dtd">
<!-- Creator: CorelDRAW 2020 (64-Bit) -->
<svg xmlns="http://www.w3.org/2000/svg" xml:space="preserve" width="297mm" height="210mm" version="1.1" style="shape-rendering:geometricPrecision; text-rendering:geometricPrecision; image-rendering:optimizeQuality; fill-rule:evenodd; clip-rule:evenodd"
viewBox="0 0 29700 21000"
 xmlns:xlink="http://www.w3.org/1999/xlink"
 xmlns:xodm="http://www.corel.com/coreldraw/odm/2003">
 <defs>
  <style type="text/css">
   <![CDATA[
    .fil5 {fill:#112B46;fill-rule:nonzero}
    .fil18 {fill:#231F20;fill-rule:nonzero}
    .fil7 {fill:#56548C;fill-rule:nonzero}
    .fil10 {fill:#606BF1;fill-rule:nonzero}
    .fil6 {fill:#6262A0;fill-rule:nonzero}
    .fil0 {fill:#65A30D;fill-rule:nonzero}
    .fil9 {fill:#808285;fill-rule:nonzero}
    .fil19 {fill:#A1CFE2;fill-rule:nonzero}
    .fil3 {fill:#B1B2F3;fill-rule:nonzero}
    .fil20 {fill:#B79370;fill-rule:nonzero}
    .fil15 {fill:#B7BABC;fill-rule:nonzero}
    .fil8 {fill:#BCBEC0;fill-rule:nonzero}
    .fil13 {fill:#D1AE88;fill-rule:nonzero}
    .fil11 {fill:#D1D3D4;fill-rule:nonzero}
    .fil12 {fill:#D4D6D8;fill-rule:nonzero}
    .fil17 {fill:#DBDCDD;fill-rule:nonzero}
    .fil1 {fill:#DFE1F7;fill-rule:nonzero}
    .fil14 {fill:#E6E7E8;fill-rule:nonzero}
    .fil16 {fill:#E8C8A1;fill-rule:nonzero}
    .fil21 {fill:#F4DEC6;fill-rule:nonzero}
    .fil4 {fill:#FBD15B;fill-rule:nonzero}
    .fil2 {fill:white;fill-rule:nonzero}
   ]]>
  </style>
 </defs>
 <g id="Layer_x0020_1">
  <metadata id="CorelCorpID_0Corel-Layer"/>
  <path id="blob.svg" class="fil0" d="M18429.54 5997.85c1923.55,1702.82 4556.61,2475.39 5250.35,3941.71 677.97,1482.08 -583.37,3657.91 -2112.76,5092.69 -1529.38,1434.78 -3326.8,2128.52 -5234.58,3090.3 -1923.56,977.54 -3973.25,2223.12 -5344.96,1687.05 -1387.48,-536.08 -2096.99,-2838.03 -3027.23,-4824.65 -930.24,-1986.62 -2081.22,-3673.68 -2128.52,-5455.33 -31.54,-1765.88 1056.37,-3642.14 2601.52,-5408.02 1560.92,-1781.65 3594.84,-3437.17 5218.82,-2964.17 1623.99,488.78 2838.03,3137.6 4777.36,4840.42z"/>
  <g id="mitra.svg">
   <g id="OBJECTS">
    <g>
     <g>
      <path class="fil1" d="M16338.55 13781.67c0,0 1829.67,1346.17 2871.09,-764.54 -1953.19,-1313.26 -2871.09,764.54 -2871.09,764.54z"/>
      <path class="fil2" d="M17244.34 12813.79c0,0 214.45,127.18 430.65,253.92 108.13,63.37 216.64,126.63 299.07,173.84 41.22,23.63 75.91,43.21 100.85,56.86 2.82,1.55 5.04,2.7 7.58,4.09l-888.75 236.65 -470.8 -272.78 -14.33 24.78 446.03 258.41 -750.53 199.88 7.38 27.68 1170.19 -311.62 -382.77 660.59 24.78 14.37 397.1 -685.37 766.73 -204.17 -271.23 711.86 26.01 9.93 278.38 -730.64 508.64 -135.43 -7.39 -27.68 -798.17 212.56c-2.74,-1.23 -7.47,-3.5 -14.37,-7.11 -65.16,-34.11 -278.22,-158.2 -474.37,-273.38 -98.11,-57.61 -192.14,-113.09 -261.63,-154.14 -34.74,-20.52 -63.33,-37.45 -83.26,-49.27 -19.93,-11.79 -31.13,-18.43 -31.17,-18.47l-14.62 24.64z"/>
     </g>
     <g>
      <path class="fil1" d="M12969.34 13664.58c0,0 -1829.67,1346.17 -2871.09,-764.55 1953.16,-1313.29 2871.09,764.55 2871.09,764.55z"/>
      <path class="fil2" d="M12063.52 12696.69c0,0 -214.45,127.19 -430.62,253.93 -108.12,63.37 -216.63,126.62 -299.06,173.84 -41.22,23.62 -75.92,43.2 -100.86,56.81 -2.81,1.55 -5.04,2.75 -7.58,4.1l888.75 236.65 470.8 -272.79 14.33 24.78 -446.03 258.42 750.53 199.88 -7.38 27.67 -1170.19 -311.62 382.77 660.59 -24.78 14.34 -397.1 -685.37 -766.73 -204.17 271.23 711.9 -26.04 9.92 -278.38 -730.63 -508.64 -135.44 7.38 -27.67 798.18 212.55c2.74,-1.19 7.47,-3.5 14.37,-7.11 65.15,-34.11 278.22,-158.19 474.37,-273.38 98.11,-57.61 192.14,-113.08 261.62,-154.13 34.75,-20.53 63.33,-37.49 83.26,-49.28 19.93,-11.79 31.14,-18.42 31.17,-18.46l14.63 24.67z"/>
     </g>
     <g>
      <path class="fil1" d="M9153.56 5987.54c0,0 -3016.9,931.11 -1519.84,3839.88 3082.29,-1096.28 1519.84,-3839.88 1519.84,-3839.88z"/>
      <path class="fil2" d="M9485.98 7799.82c0,0 -319.4,134.41 -639.75,271.2 -160.18,68.37 -320.59,137.35 -441.5,190.39 -60.47,26.53 -111.02,49.08 -146.87,65.68 -4.05,1.86 -7.19,3.37 -10.85,5.08l470.41 -1188.65 694.03 -300.42 -15.81 -36.53 -657.5 284.62 397.3 -1003.82 -37 -14.65 -619.42 1565.03 -421.56 -973.88 -36.53 15.81 437.37 1010.4 -405.88 1025.46 -571.06 -891.66 -32.6 20.89 586.11 915.11 -269.25 680.25 37 14.65 422.52 -1067.51c3.61,-2.06 10.05,-5.48 19.81,-10.16 92,-44.6 406.79,-180.07 697.68,-303.95 145.53,-61.98 285.22,-121.15 388.53,-164.82 51.65,-21.84 94.23,-39.79 123.88,-52.29 29.66,-12.51 46.34,-19.53 46.38,-19.53l-15.44 -36.7z"/>
     </g>
     <g>
      <path class="fil3" d="M5774.54 8232.74c0,0 -661.15,2658.34 2170.68,2850.68 567.75,-2781 -2170.68,-2850.68 -2170.68,-2850.68z"/>
      <path class="fil2" d="M7269.69 8798.44c0,0 -43.36,297.53 -85.45,596.79 -21.04,149.65 -41.73,299.71 -56.54,413.3 -7.39,56.82 -13.34,104.47 -17.11,138.54 -0.44,3.85 -0.72,6.88 -1.07,10.36l-671.96 -882.43 88.07 -650.23 -34.22 -4.65 -83.42 616.01 -567.44 -745.21 -27.48 20.92 884.7 1161.85 -912.41 -123.57 -4.65 34.23 946.61 128.21 579.67 761.3 -918.37 24.38 0.87 33.59 942.55 -25.02 384.56 505.03 27.47 -20.92 -603.39 -792.55c0.07,-3.61 0.43,-9.93 1.35,-19.26 8.14,-88.35 48.64,-382.89 87.08,-654.48 19.22,-135.87 37.92,-266.2 51.78,-362.49 6.95,-48.16 12.7,-87.82 16.71,-115.47 4.01,-27.63 6.28,-43.15 6.28,-43.2l-34.19 -5.03z"/>
     </g>
     <g>
      <path class="fil4" d="M6805.36 9557.74c0,0 -1871.96,3169.84 1701.26,4504.57 1798.78,-3363.6 -1701.26,-4504.57 -1701.26,-4504.57z"/>
      <path class="fil2" d="M8513.8 10860.27c0,0 -170.06,366.53 -339.13,735.8 -84.54,184.64 -168.79,369.94 -231.49,510.59 -31.33,70.32 -57.25,129.44 -75.2,171.85 -2.03,4.8 -3.58,8.58 -5.36,12.91l-526.63 -1394.42 362.99 -803.62 -42.29 -19.1 -343.92 761.34 -444.75 -1177.57 -43.41 16.4 693.4 1835.95 -1127.62 -509.36 -19.1 42.29 1169.91 528.49 454.32 1202.95 -1192.11 -321.15 -11.75 43.6 1223.48 329.6 301.37 798.02 43.4 -16.4 -472.94 -1252.3c1.51,-4.61 4.41,-12.63 9.09,-24.3 44.4,-110.62 209.65,-474.45 363.36,-809.49 76.9,-167.6 151,-328.25 205.84,-446.97 27.43,-59.36 50.06,-108.24 65.83,-142.27 15.76,-34.03 24.66,-53.21 24.66,-53.25l-41.95 -19.59z"/>
     </g>
     <g>
      <path class="fil1" d="M23982.43 10367.12c0,0 -2259.85,-230.1 -2084.71,2116.98 2349.55,139.06 2084.71,-2116.98 2084.71,-2116.98z"/>
      <path class="fil2" d="M23693.89 11660.95c0,0 -249.32,-0.59 -499.9,0.04 -125.32,0.32 -250.91,0.99 -345.92,2.18 -47.49,0.6 -87.32,1.36 -115.75,2.26 -3.21,0.13 -5.72,0.24 -8.61,0.33l645.31 -655.32 544.1 -4.17 -0.24 -28.63 -515.47 3.97 544.98 -553.43 -20.42 -20.09 -849.68 862.82 -5.88 -763.48 -28.62 0.2 6.08 792.11 -556.72 565.34 -127.98 -750.97 -27.44 4.69 131.35 770.74 -369.3 375.03 20.41 20.09 579.55 -588.53c2.98,-0.36 8.22,-0.79 15.96,-1.19 73.46,-3.7 320.03,-5.09 547.48,-5.48 113.79,-0.2 222.95,-0.2 303.63,-0.13 40.34,0.04 73.58,0.08 96.72,0.13 23.15,0.03 36.17,0.07 36.21,0.07l0.15 -28.58z"/>
     </g>
     <g>
      <path class="fil3" d="M22625.51 7346.09c0,0 -3251.88,1725.48 -901.77,4729.96 3290.66,-1929.02 901.77,-4729.96 901.77,-4729.96z"/>
      <path class="fil2" d="M23402.17 9349.13c0,0 -336.47,223.75 -673.5,450.35 -168.51,113.32 -337.18,227.32 -464.04,314.51 -63.46,43.6 -116.46,80.48 -153.9,107.28 -4.25,3.02 -7.51,5.44 -11.32,8.22l279.14 -1464.18 729.24 -495.73 -26.08 -38.35 -690.89 469.6 235.73 -1236.46 -45.58 -8.7 -367.56 1927.79 -695.58 -1023.31 -38.4 26.08 721.67 1061.68 -240.82 1263.13 -848.89 -896.45 -32.75 31.05 871.19 920.07 -159.74 837.93 45.59 8.7 250.7 -1314.92c3.7,-3.13 10.33,-8.46 20.49,-15.95 95.62,-71.15 426.57,-295.1 732.66,-500.54 153.11,-102.8 300.18,-201.08 408.98,-273.65 54.39,-36.3 99.22,-66.15 130.43,-86.96 31.25,-20.81 48.8,-32.48 48.84,-32.52l-25.61 -38.67z"/>
     </g>
     <g>
      <path class="fil1" d="M18374.02 5564.47c0,0 -888.7,2090.46 1405.05,2617.92 828.24,-2203.07 -1405.05,-2617.92 -1405.05,-2617.92z"/>
      <path class="fil2" d="M19524.44 6223.08c0,0 -74.37,237.97 -147.94,477.51 -36.77,119.79 -73.34,239.95 -100.3,331.08 -13.5,45.54 -24.58,83.81 -32.09,111.21 -0.83,3.1 -1.46,5.52 -2.22,8.34l-434.94 -810.37 157.03 -520.95 -27.39 -8.26 -148.83 493.47 -367.28 -684.34 -25.21 13.54 572.64 1066.99 -731 -220.37 -8.26 27.4 758.39 228.63 375.23 699.11 -755.22 -100.03 -3.65 27.6 775.07 102.68 248.92 463.77 25.22 -13.54 -390.59 -727.78c0.56,-2.94 1.66,-8.06 3.61,-15.61 18.19,-71.27 89.86,-307.16 156.8,-524.56 33.48,-108.75 65.79,-213.02 89.78,-290.05 11.98,-38.52 21.87,-70.28 28.75,-92.36 6.91,-22.11 10.79,-34.54 10.79,-34.58l-27.31 -8.53z"/>
     </g>
     <path class="fil1" d="M14042.09 8363.69l347.59 0c13.82,-171.01 156.48,-307.09 330.88,-307.09l521.02 0c-10.64,-38.39 -16.8,-78.58 -16.8,-120.23 0,-249.6 204.22,-453.81 453.81,-453.81l799.05 0.01c249.6,0 453.85,204.21 453.85,453.81 0,41.65 -6.16,81.83 -16.8,120.23l71.07 -0.01c174.39,0 317.06,136.12 330.88,307.09l104.5 0c236.98,0 430.86,193.89 430.86,430.86 0,236.97 -193.89,430.85 -430.86,430.85l-3379.13 0c-236.97,0 -430.85,-193.89 -430.85,-430.85 0.08,-236.97 193.97,-430.86 430.93,-430.86z"/>
     <polygon class="fil5" points="20725.44,14222.77 20725.44,14471.61 19688.63,15047.24 19688.63,14798.39 "/>
     <polygon class="fil6" points="19688.63,14798.39 19688.63,15047.24 18335.35,14596.01 18335.35,14347.18 "/>
     <polygon class="fil7" points="20725.44,14222.77 19688.63,14798.39 18335.35,14347.18 19083.94,13942.84 19083.94,14067.25 19895.97,14305.72 20181.3,14181.28 20181.3,14041.12 "/>
     <polygon class="fil5" points="20181.3,14041.12 20181.3,14181.28 19895.97,14305.72 19895.97,13438.53 20181.3,13454.29 "/>
     <polygon class="fil6" points="19895.97,13438.53 19895.97,14305.72 19083.94,14067.25 19083.94,13942.84 19083.94,13393.31 "/>
     <polygon class="fil5" points="21751.85,13507.34 21309.48,13683.64 21309.48,6332.87 21751.85,6419.03 "/>
     <polygon class="fil7" points="16858.55,13269.3 16858.55,8035.92 21309.36,6333.07 21309.36,13683.64 "/>
     <polygon class="fil4" points="21130.01,6623.04 21130.01,13227.41 17038.1,12999.46 17038.1,8188.51 19036.4,7423.84 "/>
     <path class="fil3" d="M13453.84 7520.05c-4.41,-73.57 -25.54,-144.21 -60.68,-207.19l60.08 -33.51c-30.14,-54.04 -69.25,-103.08 -116.06,-144.69l-45.74 51.49c-52.89,-46.97 -116.61,-83.34 -189.16,-104.03l18.73 -65.87 -0.87 -0.24c-50.3,-14.26 -101.12,-21.04 -151.12,-21.04 -10.88,0 -21.71,0.32 -32.48,0.95l4.05 68.69c-73.58,4.37 -144.21,25.41 -207.23,60.48l-33.43 -60.12c-54.08,30.1 -103.12,69.17 -144.77,115.94l51.46 45.79c-47.02,52.85 -83.42,116.54 -104.19,189.08l-65.88 -18.82 -0.36 1.26c-14.26,50.31 -21.08,101.13 -21.04,151.12 0,10.72 0.32,21.41 0.91,32.04l68.7 -4.01c4.29,73.58 25.29,144.26 60.31,207.31l-60.15 33.39c30.05,54.08 69.09,103.2 115.82,144.85l45.86 -51.42c52.81,47.06 116.5,83.51 189,104.31l-18.86 65.87 1.75 0.48c50.3,14.25 101.13,21.04 151.12,21.04 11.16,0 22.31,-0.32 33.39,-1.03l-4.17 -68.65c73.53,-4.45 144.17,-25.69 207.15,-60.83l33.55 60.08c54.04,-30.18 103.04,-69.33 144.61,-116.18l-51.55 -45.7c46.93,-52.89 83.26,-116.66 103.91,-189.24l65.88 18.7 0.12 -0.43c14.25,-50.31 21.08,-101.13 21.04,-151.13 0,-11.04 -0.32,-21.99 -0.99,-32.95l-68.71 4.21zm-604.84 454.36l0 0 3.37 -11.95 -3.37 11.95zm402.86 -345.32c-36.53,129.32 -154.42,213.74 -282.35,213.74 -26.45,0 -53.33,-3.57 -80.14,-11.19 -129.32,-36.5 -213.74,-154.42 -213.74,-282.35 0,-26.45 3.61,-53.29 11.19,-80.14 36.5,-129.32 154.39,-213.74 282.35,-213.74 26.45,0 53.33,3.61 80.14,11.19 129.32,36.5 213.74,154.39 213.74,282.36 -0.04,26.44 -3.61,53.32 -11.19,80.13z"/>
     <path class="fil4" d="M13785.35 10060.11c-7.07,-118.05 -41.02,-231.45 -97.36,-332.54l96.45 -53.76c-48.36,-86.76 -111.14,-165.46 -186.3,-232.25l-73.45 82.63c-84.85,-75.4 -187.18,-133.77 -303.63,-167l30.1 -105.75 -1.39 -0.39c-80.77,-22.83 -162.33,-33.79 -242.57,-33.79 -17.47,0 -34.87,0.52 -52.14,1.55l6.51 110.26c-118.05,6.99 -231.48,40.82 -332.61,97.08l-53.68 -96.48c-86.8,48.28 -165.54,111.01 -232.41,186.1l82.59 73.49c-75.48,84.81 -133.89,187.06 -167.2,303.48l-105.74 -30.18 -0.6 2.06c-22.87,80.77 -33.82,162.33 -33.79,242.54 0,17.23 0.52,34.38 1.52,51.45l110.26 -6.43c6.87,118.09 40.62,231.53 96.81,332.71l-96.53 53.6c48.21,86.83 110.9,165.61 185.9,232.52l73.58 -82.51c84.74,75.56 186.98,134 303.36,167.43l-30.3 105.75 2.78 0.79c80.76,22.87 162.32,33.79 242.57,33.79 17.94,0 35.81,-0.52 53.6,-1.63l-6.71 -110.22c118.05,-7.15 231.41,-41.22 332.46,-97.68l53.84 96.41c86.73,-48.4 165.38,-111.3 232.09,-186.5l-82.71 -73.38c75.32,-84.93 133.65,-187.25 166.76,-303.75l105.75 30.02 0.19 -0.68c22.87,-80.76 33.83,-162.32 33.79,-242.56 0,-17.71 -0.52,-35.34 -1.59,-52.89l-110.2 6.71zm-970.86 729.32l0 0 5.44 -19.18 -5.44 19.18zm646.62 -554.33c-58.61,207.54 -247.81,343.06 -453.17,343.1 -42.45,0 -85.57,-5.76 -128.62,-17.95 -207.58,-58.6 -343.06,-247.8 -343.1,-453.17 0,-42.45 5.8,-85.57 17.95,-128.57 58.6,-207.59 247.8,-343.07 453.17,-343.1 42.45,0 85.57,5.75 128.61,17.94 207.54,58.6 343.03,247.8 343.1,453.17 0,42.45 -5.76,85.58 -17.94,128.58z"/>
     <g>
      <g id="XMLID_34_">
       <g>
        <polygon class="fil8" points="11180.21,14445.6 11180.21,14664.47 10493.25,15182.64 10493.25,14979.26 "/>
        <path class="fil9" d="M10493.25 14979.26l0 203.42c0,0 -672.66,-57.18 -849.64,-190.52 -145.25,-110.11 -160.02,-399.92 -161.33,-454.96l199.33 -110.94c0,0 -67.03,312.61 74.17,418.83 154.22,116.54 737.47,134.17 737.47,134.17z"/>
        <path class="fil8" d="M9482.29 14537.21l-739.69 411.09c-24.58,13.73 -50.51,22.79 -76.44,27.07l0 -648.88 3061.56 -1668.9 118.44 -0.01 0 565.46 -1218.82 677.71 -945.73 525.48 -199.32 110.98z"/>
        <path class="fil8" d="M11846.16 7816.1l0 4841.48 -118.44 0 0 -4773.14 -3061.56 -720.28 0 -209.85 3080.66 739.41c58.37,14.02 99.34,64.49 99.34,122.38z"/>
        <polygon class="fil10" points="11727.89,7884.56 11727.89,12657.47 8666.08,14326.45 8666.08,7164.04 "/>
        <path class="fil11" d="M11180.21 14445.6l-686.96 533.66c0,0 -583.25,-17.63 -737.47,-134.17 -141.23,-106.22 -74.17,-418.83 -74.17,-418.83l945.73 -525.48 -8.94 164.71c11.64,172.45 104.16,194.36 220.81,245.11l341 135z"/>
        <path class="fil9" d="M8666.16 14975.41l0 3.85 -42.92 0c14.33,0 28.63,-1.31 42.92,-3.85z"/>
        <path class="fil8" d="M8666.16 14326.48l0 648.88c-14.29,2.58 -28.59,3.85 -42.92,3.85 -125.15,0 -240.03,-96.33 -240.03,-230.93l0 -7617.28c0,-107.93 91.6,-190.95 198.02,-190.95 15.64,0 32.16,1.71 48.28,5.59l36.65 8.62 0 209.85 0 7162.37z"/>
        <path class="fil9" d="M8623.24 14979.26l-122.46 0c-359.34,0 -650.31,-279.93 -650.31,-625.22l0 -6916.38c0,-274.76 231.52,-497.52 517.14,-497.52l213.65 0c-106.37,0 -198.01,82.99 -198.01,190.95l0 7617.28c0,134.56 114.87,230.89 239.99,230.89z"/>
       </g>
      </g>
     </g>
     <g id="XMLID_33_">
      <g>
       <g id="XMLID_37_">
        <g>
         <path class="fil12" d="M17464.23 12526.87c5.88,202.23 -37.92,272.19 -37.92,272.19 0,0 -112.85,-47.41 -150.33,-119.16l188.25 -153.03z"/>
         <path class="fil5" d="M17875.43 12824.79c-151.68,62.3 -275.8,-144.89 -275.8,-144.89l-5.88 -8.14 360.66 -274.45c-3.18,128.21 -12.63,262.26 -28.91,401.75 -18.46,11.28 -34.74,19.37 -50.07,25.73z"/>
         <path class="fil13" d="M15269.97 10398.52c497.45,69.53 608.47,7.23 788.14,-158.42 0,0 570.11,-204.49 1067.54,1019.26 263.62,646.86 332.22,1040.47 338.54,1267.5l-188.25 153.04 -586.82 476.67c-20.77,-99.74 -79.89,-209.45 -147.15,-320.03 -131.83,-216.68 -414.86,-716.83 -1272.03,-1228.25 -857.19,-511.41 -753.4,-41.09 -1327.12,117.37 -573.72,158.91 -767.36,-241.49 -718.61,-366.09 39.27,-101.57 705.98,-563.36 1035.51,-781.35 73.58,-49.19 130.91,-85.76 159.78,-103.35 158.95,-97.11 352.59,-145.39 850.47,-76.35z"/>
         <path class="fil5" d="M21130.01 6623.04l0 3545.51c-1336.6,1168.2 -3199.94,2589.42 -3204.47,2630.51 16.24,-139.49 25.73,-273.54 28.91,-401.75 27.07,-1187.62 -498.79,-1883.67 -916.35,-2247.03 -176.93,-154.38 -334.92,-248.72 -422.95,-295.65 0,0 -85.33,49.2 -194.09,119.16 -12.63,-29.78 -29.78,-84.85 -5.4,-131.83 22.12,-42.44 263.62,-273.54 622.48,-604.4 522.26,-482.56 1294.15,-1177.7 1998.35,-1813.72l2093.52 -800.8z"/>
         <path class="fil14" d="M16615.15 9854.59c295.65,157.08 1377.65,851.35 1339.3,2542.73l-360.66 274.45 -167.48 127.29c0,0 43.8,-69.96 37.92,-272.19 -6.32,-227.04 -74.93,-620.64 -338.54,-1267.5 -497.45,-1223.75 -1067.54,-1019.26 -1067.54,-1019.26 93.9,-87.12 243.32,-189.13 362.91,-266.31 108.76,-70.02 194.09,-119.21 194.09,-119.21z"/>
         <path class="fil15" d="M11406.02 12928.58c0,0 84.18,-47.29 173.48,-143.66l-158.95 -196.08 -78.98 109.07 64.45 230.67z"/>
         <path class="fil16" d="M16615.15 13408.87c-62.74,56.85 -134.05,70.87 -209.89,54.16 -17.14,-3.61 -34.74,-9.01 -52.8,-15.81 2.7,5.4 17.14,37.92 28.42,84.42l0.44 0.43c22.11,89.38 32.95,232.48 -74.49,339.89 -105.62,105.62 -198.61,147.58 -350.73,89.38 -11.28,-4.05 -22.56,-9.01 -34.74,-14.46 5.39,7.67 45.14,63.65 55.98,141.28 9.93,67.26 -2.26,151.21 -78.1,232.92 -104.26,111.93 -209.45,116.46 -287.99,93.9 -18.5,-5.43 -35.66,-12.18 -51.02,-19.42 1.82,3.61 12.63,23.47 20.77,52.38 13.97,51.02 21.2,130 -38.36,201.78 -96.61,117.37 -275.8,82.59 -459.52,0 -63.66,-29.34 -179.2,-79.01 -303.32,-131.82 -232.01,-98.4 -491.57,-207.2 -491.57,-207.2 0,0 69.53,-127.73 -112.41,-361.13 -102.91,-132.26 -217.11,-146.24 -310.54,-91.64 -0.43,-7.22 74.92,-386.87 -160.69,-540.33 -138.14,-90.29 -248.72,-22.56 -334.92,99.74 0,0 -17.59,-297.48 -219.81,-348.95 -149.42,-38.35 -233.35,49.64 -327.7,207.63 0.91,-1.35 -71.8,-352.55 -263.62,-347.59 -142.62,3.61 -265.43,130.91 -338.1,296.57l-696.48 -478.46 -117.81 -80.81 -7.22 -0.43c23.03,-430.18 204.01,-1346.05 1202.51,-2424.44 244.19,133.61 456.35,236.09 548.46,261.35 207.63,57.33 266.08,7.18 597.86,-18.54 331.79,-26.17 567.6,57.61 567.6,57.61 -329.52,218.03 -1051.7,716.54 -1090.97,818.11 -48.76,124.6 144.89,524.96 718.61,366.1 573.72,-158.43 469.93,-628.79 1327.11,-117.38 857.19,511.42 1140.21,1011.56 1272.04,1228.25 67.26,110.58 126.39,220.29 147.15,320.03 19.71,95.4 3.91,182.08 -74.15,252.48z"/>
         <path class="fil13" d="M14779.76 14517.95c0,0 -427.01,260.91 -753.83,131.83 -38.83,-15.36 -73.58,-31.61 -105.18,-49.63 -1.79,-0.44 -3.61,-1.83 -5.4,-3.18l-39.71 -23.47c-196.34,-129.08 -231.13,-306.49 -171.09,-494.27 31.13,-97.95 89.37,-178.75 159.78,-220.72 0.43,0 0.43,-0.44 0.91,-0.44 8.14,-4.96 16.25,-9.01 24.82,-12.19 88.47,-39.27 191.82,-17.15 285.73,103.84 181.89,233.35 112.4,361.13 112.4,361.13 0,0 259.56,108.71 491.57,207.1z"/>
         <path class="fil13" d="M13875.61 14573.5l-17.15 2.26 -272.19 32.96c-68.17,8.14 -136.32,-6.32 -194.56,-40.62 -13.54,-7.67 -26.64,-17.15 -39.27,-27.08 -84.42,-69.05 -190.95,-166.13 -218.46,-238.8 -46.5,-124.6 -10.4,-315.98 82.58,-570.1 39.28,-106.98 89.82,-225.26 153.03,-314.64 12.19,-17.15 24.39,-32.96 37.49,-47.85 80.33,-90.29 178.75,-129.56 297.48,-51.89 209.88,136.79 172.88,453.21 162.95,524.96 -1.35,9.01 -2.26,14.45 -2.26,15.36 -0.43,0 -0.43,0.44 -0.91,0.44 -70.41,41.96 -128.65,122.76 -159.78,220.73 -60.05,187.74 -25.3,365.14 171.05,494.27z"/>
         <path class="fil13" d="M13352.43 14540.98c0,0 -5.4,0.44 -15.33,1.83 -52.37,4.96 -228.39,21.2 -382.77,16.71 -183.72,-4.96 -307.4,-99.74 -416.64,-282.58 -14.89,-25.29 -26.17,-51.46 -33.87,-78.98 -5.89,-18.07 -9.5,-36.57 -12.19,-55.99 -27.99,-204.92 100.22,-450.94 222.55,-672.11 39.71,-71.79 74.49,-137.22 107.88,-193.64 11.28,-18.98 22.56,-36.57 33.39,-53.28 81.72,-124.12 162.53,-188.25 294.3,-154.38 172.89,43.8 210.81,267.65 218.03,331.78 1.35,10.84 1.82,17.15 1.82,17.15 -63.2,89.38 -113.75,207.63 -153.03,314.64 -92.98,254.12 -129.08,445.5 -82.59,570.1 27.54,72.62 134.07,169.7 218.45,238.75z"/>
         <path class="fil13" d="M12714.19 13469.82c-122.33,221.16 -250.51,467.18 -222.55,672.1 -4.05,-0.91 -7.67,-1.82 -11.75,-2.7l0 -0.43c-68.62,-17.15 -129.09,-41.1 -180.11,-65 -104.27,-49.2 -169.74,-154.38 -168.35,-269.48 0.91,-115.12 8.14,-268.58 32.95,-399.05 12.19,-61.82 31.13,-123.22 55.99,-180.11 72.66,-165.65 195.48,-292.96 338.1,-296.57 165.65,-4.53 242.41,257.3 259.56,328.17 2.7,11.72 4.04,18.51 4.04,19.42 -33.43,56.42 -68.17,121.86 -107.88,193.65z"/>
         <path class="fil17" d="M11398.79 12665.45c-8.13,168.83 7.23,263.18 7.23,263.18l-939.82 -339.02c55.07,-1630.9 1237.29,-2909.69 1237.29,-2909.69 316.34,171.1 656.51,379.87 963.01,547.36 -998.5,1078.39 -1244.68,2007.99 -1267.71,2438.17z"/>
         <path class="fil14" d="M11703.34 9679.76c0,0.4 -0.79,0.8 -1.59,1.59 -1.19,1.19 -3.17,3.57 -5.95,6.75 -7.15,8.34 -19.85,22.24 -36.53,42.09 -3.57,3.97 -6.75,7.94 -10.32,12.31 -13.11,15.09 -27.8,32.96 -44.87,53.6 -9.93,12.71 -21.05,26.21 -32.56,40.5 -24.22,30.58 -51.22,65.52 -80.61,104.03 -7.14,9.53 -14.69,19.46 -22.23,29.78 -30.18,40.5 -62.34,85.37 -96.09,133.42 -15.09,21.44 -30.18,43.67 -46.06,66.7 -10.72,15.89 -21.44,31.77 -32.16,48.05 -8.74,13.5 -17.87,27.4 -27,40.9 -17.87,27.79 -36.14,56.38 -54.8,85.76 -9.13,14.69 -18.26,29.78 -27.79,44.87 -27.8,45.66 -55.99,92.91 -84.18,141.75 -9.53,16.28 -18.66,32.96 -28.19,49.64 -18.66,33.35 -37.72,67.5 -56.39,102.84 -17.47,32.16 -34.94,65.11 -52.01,98.86 -1.19,2.78 -2.38,5.56 -3.97,7.95 -9.13,18.26 -18.27,36.92 -27.4,55.19 -63.93,130.23 -125.87,268.81 -182.25,414.53 -15.49,39.71 -30.57,80.21 -45.27,121.11 -15.08,43.28 -30.17,86.95 -44.07,131.03 -7.15,21.44 -13.9,43.28 -20.65,65.12 -68.69,223.94 -121.9,462.18 -151.28,709.95 -5.16,44.87 -9.93,90.13 -13.5,135.79 -4.37,54.8 -7.54,109.99 -9.53,165.58 -3.97,115.15 -214.81,138.18 -294.22,141.35 -220.37,9.53 -776.66,-311.69 -1252.74,-612.67 -87.75,-55.98 -173.12,-111.17 -252.93,-163.19l0 -4472.53c250.15,158.43 661.11,435.58 1096.69,732.58 793.73,542.79 1667.27,1152.28 1786.39,1230.11 46.46,30.97 223.55,159.62 154.06,234.66z"/>
        </g>
       </g>
      </g>
     </g>
     <path class="fil17" d="M9762.89 8214.99c-228.71,30.97 -486.4,129.84 -654.76,388.33 -331.55,510.23 -488.39,2450.68 -189,3514.81 -87.75,-55.98 -173.12,-111.17 -252.93,-163.19l0 -4472.53c250.15,158.43 661.11,435.58 1096.69,732.58z"/>
     <polygon class="fil18" points="16462.48,5944.62 16462.48,5944.62 "/>
     <path class="fil1" d="M13673.54 5036.1l-227.12 0c-9.06,-111.74 -102.25,-200.68 -216.2,-200.68l-340.49 0c6.95,-25.09 10.96,-51.35 10.96,-78.58 0,-163.12 -133.45,-296.53 -296.53,-296.53l-522.14 0.01c-163.12,0 -296.53,133.45 -296.53,296.53 0,27.2 4.01,53.48 10.96,78.58l-46.45 -0.01c-113.96,0 -207.19,88.94 -216.2,200.68l-68.3 0c-154.85,0 -281.52,126.7 -281.52,281.52 0,154.85 126.7,281.55 281.52,281.55l2208.08 0c154.85,0 281.51,-126.7 281.51,-281.55 0,-154.86 -126.7,-281.52 -281.55,-281.52z"/>
     <g>
      <path class="fil19" d="M17407.17 12972.54c2.78,0.56 5.4,1.86 7.51,3.77l-7.51 -3.77zm0 0l0 0 0 0z"/>
     </g>
     <g>
      <path class="fil20" d="M14325.04 11530.44c0,0 6.03,-5.2 17.31,-15.01 11.75,-9.17 27.16,-25.65 50.58,-41.46 45.79,-32.28 118.49,-75.08 217.16,-93.67 97.91,-18.66 217.47,-14.37 336.67,14.93 60.03,13.54 119.79,33.12 179.48,53.68 29.54,10.52 59.28,21.12 89.17,31.73l44.35 15.81 46.62 18.02c121.5,53.05 230.85,119.09 332.47,180.71 101.84,60.98 194.24,121.03 278.14,163.07 83.38,42.48 155.05,74.41 208.38,87.51 26.25,8.86 47.61,12.19 62.34,14.62 14.77,2.62 22.63,3.97 22.63,3.97 0,0 -7.98,0.36 -22.9,1.03 -15.02,0.83 -37.29,2.31 -65.48,-0.64 -56.06,-5.48 -137.42,-19.85 -227.64,-55.74 -90.17,-35.34 -193.01,-81.88 -298.27,-138.02 -105.9,-54.56 -215.45,-118.65 -327.66,-165.3l-41.85 -17 -44.83 -16.88c-29.42,-11.24 -58.76,-22.39 -87.87,-33.47 -57.9,-21.72 -114.4,-42.73 -169.55,-59.24 -109.99,-33.19 -215.84,-52.61 -306.77,-43.92 -90.26,8.18 -165.93,30.38 -214.89,55.27 -25.73,10.13 -43.71,22.51 -57.25,28.99 -13.31,7.2 -20.34,11.01 -20.34,11.01z"/>
     </g>
     <g>
      <path class="fil20" d="M16380.84 13531.65c0,0 -2.42,-4.61 -6.99,-13.27 -4.84,-8.54 -10.49,-21.52 -20.65,-36.65 -18.06,-31.41 -47.37,-74.05 -82.82,-124.92 -34.87,-51.25 -79.38,-108.43 -126.27,-170.01 -47.61,-61.11 -98.31,-126.31 -151.56,-189.4 -52.13,-64.01 -106.68,-125.91 -158.5,-183.29 -52.54,-56.58 -101.05,-110.34 -146.68,-152.04 -22.36,-21.44 -42.92,-40.97 -62.06,-57.3 -18.86,-16.67 -34.82,-32.08 -49.67,-42.32 -28.55,-22.63 -44.83,-35.58 -44.83,-35.58 0,0 18.26,10.05 50.3,27.64 16.2,8.73 34.31,21.48 55.59,35.61 21.6,13.82 44.79,30.93 68.93,50.99 49.23,39.07 104.39,87.51 159.94,142.94 55.66,55.35 111.45,117.69 165.06,181.82 53.08,64.52 103.79,130.99 148.57,195.28 44.91,64.2 83.03,126.66 114.59,180.86 32.09,53.84 53.41,102.01 68.02,135.52 7.51,16.64 11.08,30.85 14.42,39.98 2.98,9.21 4.61,14.14 4.61,14.14z"/>
     </g>
     <g>
      <path class="fil20" d="M15921.36 13946.94c0,0 -11.99,-12.51 -33,-34.39 -20.12,-22.55 -50.62,-53.4 -84.57,-92.44 -34.23,-38.59 -75.01,-84.57 -117.26,-132.14 -42.81,-49 -87.71,-100.46 -132.89,-152.16 -44.75,-52.13 -90.93,-102.83 -133.69,-150.88 -43.75,-46.98 -83.35,-92.24 -120.35,-127.89 -36.57,-36.1 -67.26,-66.15 -90.17,-85.77 -23.11,-19.53 -36.29,-30.69 -36.29,-30.69 0,0 15.25,8.3 41.96,22.86 25.41,16.56 62.86,39.44 103.04,72.87 40.5,32.99 86.64,72.82 133.18,118.44 46.38,45.7 93.58,96.65 139.49,148.51 45.14,52.57 89.61,105.61 129.21,157.03 40.14,50.95 74.77,100.7 105.38,142.55 30.5,41.93 53.44,78.78 70.44,103.79 16.22,25.65 25.52,40.31 25.52,40.31z"/>
     </g>
     <g>
      <path class="fil20" d="M15560.23 14395.62c0,0 -12.27,-8.5 -33.75,-23.3 -20.81,-15.61 -51.78,-36.46 -86.69,-64.17 -34.86,-27.75 -76.55,-58.96 -119.35,-94.54 -43.16,-35.21 -87.99,-74.13 -132.94,-112.96 -44.24,-39.63 -88.62,-79.09 -129.05,-117.46 -40.82,-37.88 -77.03,-75.36 -109.03,-106.37 -31.96,-31.05 -56.54,-59.2 -74.72,-77.83 -17.48,-19.45 -27.4,-30.53 -27.4,-30.53 0,0 12.27,8.5 33.87,23.35 20.81,15.68 51.94,36.53 86.8,64.25 34.86,27.75 76.63,58.88 119.35,94.5 43.12,35.14 87.88,74.09 132.75,112.84 44.19,39.58 88.47,79.05 128.84,117.33 40.7,37.92 77,75.32 109,106.38 31.96,31.09 56.65,59.24 74.84,77.95 17.47,19.44 27.48,30.56 27.48,30.56z"/>
     </g>
     <g>
      <path class="fil16" d="M14169.11 10745.84c0,0 8.1,-9.4 22.2,-25.84 14.97,-15.61 35.86,-38.68 63.89,-63.06 28.27,-23.99 60.99,-52.81 99.46,-79.22 37.96,-27.12 80.97,-52.57 125.51,-75.36 44.8,-22.31 91.8,-40.63 137.07,-54 22.99,-5.69 45.42,-10.49 66.67,-14.34 21.6,-2.18 42.28,-4.24 60.78,-6.11 38.09,-0.04 69.22,2.58 90.57,8.1 21.12,4.96 33.16,7.78 33.16,7.78 0,0 -12.31,0.67 -33.95,1.82 -21.24,-1.55 -51.35,5.72 -86.64,9.89 -17.11,4.21 -36.21,8.9 -56.18,13.83 -19.85,6.62 -40.38,13.5 -61.11,20.44 -41.57,16.61 -85.81,34.43 -128.33,56.78 -43.12,20.93 -85.01,44.75 -124.08,67.7 -38.99,23 -75.76,44.55 -106.22,64.73 -30.21,20.41 -57.01,35.77 -74.48,48.24 -17.96,11.83 -28.32,18.62 -28.32,18.62z"/>
     </g>
     <g>
      <path class="fil20" d="M13352.43 14540.98c0,0 -16.21,-12.15 -44.51,-33.35 -27.16,-22.6 -67.54,-53.8 -108.92,-99.19 -40.74,-45.3 -88.71,-101.53 -116.14,-177.73 -13.63,-37.75 -20.38,-80.92 -15.69,-124.04 1.63,-21.52 7.27,-43.04 13.14,-63.1l17.4 -57.57c24.1,-76.99 49.51,-153.94 77.19,-224.7 27.04,-71 57.41,-135.36 84.61,-189.83 27.24,-54.48 55.23,-97.12 74.89,-126.59 20.81,-28.83 33.43,-44.55 33.43,-44.55 0,0 -9.77,17.79 -25.09,49.44 -16.12,31.24 -35.07,77.78 -57.9,133.17 -22.87,55.47 -45.03,122.02 -68.97,193.1 -23.38,71.31 -47.88,147.51 -70.91,224.54l-18.23 57.65c-5.56,18.3 -10.44,35.57 -12.18,53.64 -4.64,35.74 -0.4,71.63 9.69,105.46 21,67.7 59.52,126.59 95.96,173.24 36.69,46.85 69.93,84.7 94.23,110.11 24.18,25.61 38,40.3 38,40.3z"/>
     </g>
     <g>
      <path class="fil20" d="M13865.24 13858.03c0,0 -6.23,11.04 -17.15,30.3 -11.48,18.66 -25.06,47.02 -40.47,80.57 -15.52,33.55 -29.58,74.25 -40.86,118.45 -11.24,44.15 -20.05,91.99 -22.95,140.28 -4.13,48.12 -1.95,96.81 5.16,140.53 7.15,42.56 25.54,79.81 47.09,109.78 21.08,29.78 40.78,54.36 55.83,70.28 14.53,16.56 23.74,25.34 23.74,25.34 0,0 -11.24,-5.92 -30.05,-18.03 -17.87,-13.14 -44.94,-31.09 -71.15,-60.12 -25.85,-28.06 -56.06,-67.46 -67.97,-117.85 -12.44,-48.56 -15.25,-101.25 -11.95,-153.34 4.17,-52.02 14.57,-103.47 30.69,-149.49 15.25,-46.39 38,-86.13 58.05,-118.96 20.18,-32.96 42.33,-56.62 57.14,-73.1 15.8,-15.7 24.85,-24.64 24.85,-24.64z"/>
     </g>
     <g>
      <path class="fil20" d="M14288.19 14310.76c0,0 0.44,2.31 1.23,6.28 0.28,3.89 1.59,9.69 1.47,16.24 -0.16,6.59 0.4,14.42 -0.36,22.51 -0.52,8.14 -1.99,16.68 -3.38,25.21 -1.91,8.42 -3.69,16.92 -6.27,24.66 -2.26,7.82 -5.8,14.85 -8.11,21.01 -2.3,6.15 -5.75,10.99 -7.42,14.53 -2.22,3.41 -3.49,5.36 -3.49,5.36 0,0 -0.44,-2.31 -1.23,-6.32 -0.24,-3.89 -1.63,-9.69 -1.47,-16.24 0.16,-6.59 -0.47,-14.42 0.36,-22.51 0.52,-8.18 1.99,-16.68 3.37,-25.21 1.91,-8.46 3.74,-16.92 6.32,-24.66 2.31,-7.82 5.8,-14.85 8.1,-21.01 2.35,-6.15 5.76,-10.99 7.42,-14.53 2.19,-3.33 3.46,-5.32 3.46,-5.32z"/>
     </g>
     <g>
      <path class="fil20" d="M12822.07 13276.17c0,0 -6.03,13.5 -16.6,37.13 -11.51,23.07 -26.53,56.9 -46.85,95.93 -20.57,38.87 -42.13,85.49 -66.63,134.33 -23.63,49.31 -49.51,101.41 -72.27,154.78 -23.82,52.88 -45.23,106.65 -63.17,157.75 -8.97,25.58 -17.63,50.27 -24.42,74.13 -7.98,23.63 -13.3,46.46 -17.94,67.66 -5.44,21.12 -8.27,40.74 -11.64,58.17 -3.77,17.44 -6.12,32.8 -6.52,45.54 -2.85,25.74 -4.44,40.34 -4.44,40.34 0,0 -1.91,-14.65 -5.2,-40.42 -1.59,-12.98 -2.65,-28.79 -2.34,-46.93 -0.08,-18.19 -0.72,-38.99 2.7,-61.11 2.58,-22.27 4.93,-46.58 10.2,-71.71 4.1,-25.49 10.25,-51.85 18.11,-78.78 14.53,-54.2 36.01,-109.95 59.48,-164.62 24.34,-54.32 51.46,-107.13 79.14,-155.25 27.67,-48.12 56.66,-91.09 81.08,-127.98 24.29,-36.96 47.57,-65.79 62.53,-86.8 15.77,-20.44 24.78,-32.16 24.78,-32.16z"/>
     </g>
     <g>
      <path class="fil3" d="M17835.84 6938.43l0 -67.7 -1309.12 0 0 -732.78 1241.38 0 0 800.48 67.74 0 0 -67.7 0 67.7 67.7 0 0 -868.18c0,-17.83 -7.22,-35.26 -19.82,-47.88 -12.63,-12.59 -30.05,-19.82 -47.88,-19.82l-1376.82 0c-17.83,0 -35.26,7.22 -47.88,19.82 -12.63,12.63 -19.86,30.05 -19.86,47.88l0 868.18c0,17.83 7.23,35.26 19.86,47.89 12.63,12.63 30.05,19.81 47.88,19.81l1376.82 0c17.83,0 35.26,-7.22 47.88,-19.81 12.63,-12.59 19.82,-30.06 19.82,-47.89l-67.7 0z"/>
      <path class="fil3" d="M16416.86 6123.22l688.43 548.42c24.62,19.62 59.76,19.62 84.38,0l688.38 -548.42c29.26,-23.3 34.07,-65.91 10.76,-95.13 -23.3,-29.26 -65.91,-34.08 -95.13,-10.76l-646.23 514.79 -646.22 -514.79c-29.26,-23.31 -71.87,-18.47 -95.13,10.76 -23.32,29.22 -18.51,71.82 10.76,95.13l0 0z"/>
     </g>
     <g>
      <rect class="fil4" x="16495.47" y="15585.62" width="651.98" height="108.67"/>
      <path class="fil4" d="M17636.44 15368.27c-6.23,0 -12.39,0.47 -18.5,1.15 44.54,39.83 72.82,97.55 72.82,161.88 0,64.32 -28.27,122.06 -72.82,161.88 6.08,0.67 12.23,1.11 18.5,1.11 90.01,0 162.99,-72.98 162.99,-162.99 0,-90.01 -72.98,-163.03 -162.99,-163.03z"/>
      <path class="fil4" d="M17636.44 15531.3c0,90.01 -72.99,162.99 -163,162.99 -90.01,0 -162.99,-72.98 -162.99,-162.99 0,-90.01 72.98,-163.03 162.99,-163.03 90.01,0 163,72.97 163,163.03z"/>
      <rect class="fil4" x="16278.12" y="14987.96" width="1738.67" height="217.32"/>
      <path class="fil4" d="M17908.11 15857.25l0 -36.57 -1521.32 0c-39.78,-0.07 -72.03,-32.32 -72.1,-72.1l0 -869.3c0.07,-39.87 32.32,-72.07 72.1,-72.14l1521.32 -0.01c39.82,0.07 72.06,32.28 72.1,72.14l0 869.3c-0.08,39.78 -32.32,72.03 -72.1,72.1l0 36.58 0 36.57c80.2,-0.04 145.2,-65 145.25,-145.2l0 -869.3c0,-80.25 -65,-145.25 -145.25,-145.25l-1521.32 0c-80.21,0.04 -145.2,65 -145.2,145.25l0 869.3c0.04,80.2 64.99,145.16 145.2,145.2l1521.32 0 0 -36.57z"/>
     </g>
     <g>
      <path class="fil3" d="M12121.02 15843.19l418.9 0c17.83,0 35.26,-7.22 47.88,-19.81 12.63,-12.63 19.82,-30.06 19.82,-47.89l0 -772.29c0,-18.86 -7.71,-36.6 -21.48,-49.47l-608.03 -568.32c-25.97,-24.26 -66.47,-24.26 -92.44,0l-608.46 568.32c-13.78,12.87 -21.48,30.61 -21.48,49.47l0 772.29c0,17.83 7.22,35.27 19.81,47.89 12.63,12.63 30.06,19.81 47.89,19.81l418.9 0c37.4,0 67.7,-30.3 67.7,-67.7 0,-37.4 -30.34,-67.7 -67.7,-67.7l-351.16 0 0.01 -675.2 540.76 -505.07 540.37 505.03 0 675.21 -351.22 0c-37.4,0 -67.7,30.3 -67.7,67.7 -0.07,37.4 30.22,67.73 67.63,67.73l0 0z"/>
      <path class="fil3" d="M11809.99 15775.46l0 -466.32 243.33 0 0 466.32c0,37.4 30.3,67.7 67.7,67.7 37.4,0 67.7,-30.3 67.7,-67.7l0 -534.02c0,-17.83 -7.23,-35.26 -19.82,-47.88 -12.63,-12.63 -30.05,-19.82 -47.88,-19.82l-378.73 0c-17.83,0 -35.26,7.23 -47.88,19.82 -12.63,12.63 -19.82,30.05 -19.82,47.88l0 534.02c0,37.4 30.34,67.7 67.7,67.7 37.37,0.03 67.7,-30.3 67.7,-67.7l0 0z"/>
     </g>
     <g>
      <path class="fil4" d="M23679.56 11349.65c0,0 -3681.31,0.04 -3013.56,3755.51 3810.94,-161.59 3013.56,-3755.51 3013.56,-3755.51z"/>
      <path class="fil2" d="M23426.79 13483.08c0,0 -402.07,39.94 -806,82.16 -201.99,21.12 -404.41,42.76 -557.36,60.31 -76.47,8.77 -140.56,16.52 -186.22,22.63 -5.16,0.68 -9.17,1.27 -13.86,1.95l932.86 -1162.53 876.56 -96.09 -5.09 -46.13 -830.42 91 787.78 -981.74 -36.17 -29.02 -1228.25 1530.64 -134.8 -1229.94 -46.13 5.04 139.88 1276.09 -804.77 1002.9 -329.69 -1189.76 -43.47 12.03 338.33 1221.1 -533.85 665.32 36.17 29.02 837.77 -1044.04c4.73,-1.07 13.1,-2.62 25.57,-4.53 117.81,-18.03 515.12,-60.75 881.81,-98.75 183.44,-19.02 359.41,-36.92 489.54,-50.03 65.08,-6.55 118.64,-11.95 156.01,-15.68 37.32,-3.73 58.33,-5.83 58.4,-5.83l-4.6 -46.12z"/>
     </g>
     <g>
      <path class="fil10" d="M6571.16 12264.18c0,0 3681.31,0.04 3013.56,3755.51 -3810.94,-161.61 -3013.56,-3755.51 -3013.56,-3755.51z"/>
      <path class="fil2" d="M6823.98 14397.6c0,0 402.07,39.95 806,82.16 201.99,21.12 404.41,42.76 557.36,60.32 76.47,8.77 140.56,16.51 186.22,22.63 5.16,0.67 9.17,1.31 13.86,1.95l-932.86 -1162.53 -876.56 -96.09 5.04 -46.14 830.42 91.01 -787.77 -981.75 36.2 -29.02 1228.25 1530.65 134.8 -1229.95 46.13 5.04 -139.88 1276.09 804.77 1002.91 329.69 -1189.77 43.51 12.04 -338.33 1221.09 533.85 665.32 -36.17 29.06 -837.77 -1044.04c-4.73,-1.07 -13.1,-2.62 -25.57,-4.53 -117.81,-18.03 -515.12,-60.75 -881.81,-98.74 -183.44,-19.03 -359.42,-36.93 -489.54,-50.03 -65.08,-6.56 -118.65,-11.95 -156.01,-15.69 -37.32,-3.73 -58.33,-5.83 -58.4,-5.83l4.57 -46.16z"/>
     </g>
     <g>
      <path class="fil4" d="M10758.73 6576.55c-28.91,-29.35 -52.81,-55.99 -67.27,-78.1 -7.22,-11.28 -12.18,-20.77 -14.89,-28.91 -1.78,-5.4 -2.7,-9.93 -3.61,-13.98 0.92,-7.22 2.71,-14.45 7.22,-24.38 9.5,-21.68 32.96,-51.02 64.56,-83.94 47.85,-50.11 112.85,-107.44 168.36,-179.67 27.99,-36.57 53.73,-77.19 72.23,-123.25 18.93,-46.5 30.25,-97.95 30.25,-153.94 0,-20.33 -8.14,-40.18 -22.56,-54.63 -14.41,-14.46 -33.87,-22.56 -54.16,-22.56l-825.13 0c-20.32,0 -40.17,8.14 -54.63,22.56 -13.97,14.45 -22.56,34.3 -22.56,54.63 0,85.33 27.52,160.25 65,222.08 56.42,92.56 134.05,161.17 191.82,220.3 28.91,29.34 52.81,55.98 67.26,78.1 7.67,10.84 12.19,20.77 15.37,28.91 1.82,5.39 2.7,9.92 3.17,13.97 -0.43,6.79 -2.26,14.45 -6.79,24.38 -9.92,21.21 -32.95,51.02 -64.99,83.98 -47.41,49.67 -112.41,106.97 -168.36,179.67 -27.55,36.57 -53.28,77.19 -71.79,123.25 -18.98,46.06 -30.7,97.95 -30.7,153.94 0,20.33 8.58,40.18 22.56,54.63 14.46,14.46 34.31,22.56 54.63,22.56l825.15 -0.01c20.33,0 39.71,-8.14 54.16,-22.56 14.46,-14.41 22.56,-34.3 22.56,-54.63 0.43,-85.33 -27.08,-160.25 -64.56,-222.08 -56.43,-93.03 -134.06,-161.16 -192.3,-220.32zm-497.45 -502.85c-21.68,-28.43 -39.27,-57.34 -51.46,-87.55 -2.7,-6.32 -4.52,-12.63 -6.75,-18.99l646.39 0.01c-7.23,22.56 -17.6,44.24 -30.26,65.44 -40.18,66.79 -106.97,128.65 -170.18,191.82 -31.17,32.04 -61.38,64.09 -86.2,102.01 -12.18,18.5 -23.46,38.84 -31.17,61.39 -2.26,5.43 -4.04,11.27 -5.39,17.15 -4.05,-13.54 -8.58,-26.65 -14.46,-38.84 -23.03,-49.2 -57.34,-88.03 -92.99,-125.47 -54.13,-56.39 -113.73,-109.63 -157.53,-166.97zm-58.21 868.03c7.23,-22.11 17.15,-43.8 30.26,-64.99 39.7,-66.79 106.97,-129.09 169.74,-191.82 31.61,-32.04 61.82,-64.57 86.68,-102.01 12.19,-18.99 23.03,-38.84 31.14,-61.39 2.26,-5.39 4.04,-11.28 5.39,-17.15 3.62,13.54 8.58,26.65 13.98,38.84 23.46,49.2 57.77,88.03 93.43,125.51 54.16,55.99 113.76,109.67 157.08,166.57 22.11,28.91 39.7,57.77 51.89,87.55 2.26,6.32 4.53,12.63 6.79,18.94l-646.38 -0.01 0 -0.04z"/>
     </g>
     <g>
      <path class="fil4" d="M15623.96 5081.64l-51.94 0 0 959.1 -358.12 452.19 -657.18 0 0 -1359.35 1067.2 0 0 -51.94 -51.94 0 51.98 0 0 -51.94 -1119.13 0.01c-13.66,0 -27.04,5.55 -36.73,15.21 -9.69,9.65 -15.21,23.03 -15.21,36.73l0 1463.22c0,13.66 5.52,27.03 15.21,36.72 9.65,9.66 23.03,15.21 36.73,15.21l734.21 0c15.96,0 30.81,-7.19 40.7,-19.7l384.91 -486c7.31,-9.26 11.25,-20.45 11.25,-32.24l0 -977.21c0,-13.67 -5.53,-27.04 -15.22,-36.73 -9.69,-9.69 -23.03,-15.21 -36.72,-15.21l0 51.93z"/>
      <path class="fil4" d="M15239.04 6544.87l51.94 0 0 -434.07 225.65 -0.01 -318.29 401.83 40.7 32.25 51.94 0 -51.94 0 40.7 32.23 384.91 -486c12.35,-15.56 14.7,-36.97 6.04,-54.84 -8.66,-17.9 -26.88,-29.3 -46.73,-29.3l-384.92 0c-13.66,0 -27.04,5.52 -36.73,15.21 -9.69,9.69 -15.21,23.03 -15.21,36.73l0 486c0,22.12 13.97,41.77 34.87,49.04 20.88,7.27 44.03,0.52 57.77,-16.8l-40.7 -32.27z"/>
      <g>
       <polygon class="fil4" points="14709.44,5395.08 15431.5,5395.08 15431.5,5291.21 14709.44,5291.21 "/>
      </g>
      <g>
       <polygon class="fil4" points="14709.44,5593.02 15431.5,5593.02 15431.5,5489.15 14709.44,5489.15 "/>
      </g>
      <g>
       <polygon class="fil4" points="14709.44,5790.95 15281.53,5790.95 15281.53,5687.08 14709.44,5687.08 "/>
      </g>
     </g>
     <g>
      <path class="fil1" d="M21876.45 6835.63l-37.16 -14.02c12.31,-32.76 22.83,-70.28 31.29,-111.58l38.87 7.95c-8.83,43.36 -19.94,82.94 -33,117.65zm46.3 -197.3l-39.35 -5.24c4.8,-36.13 8.5,-75.57 10.99,-117.17l39.64 2.38c-2.55,42.56 -6.36,82.95 -11.28,120.03zm14.6 -200.08l-39.7 -0.99c0.63,-24.62 0.91,-49.27 0.91,-73.93 0,-14.85 -0.07,-29.66 -0.27,-44.47l39.71 -0.52c0.19,14.93 0.27,29.94 0.27,44.99 0,24.97 -0.24,50.02 -0.92,74.92zm-40.77 -198.45c-1.19,-40.63 -2.86,-80.37 -4.61,-118.69l39.67 -1.82c1.75,38.51 3.42,78.54 4.64,119.35l-39.7 1.16zm-8.38 -198.02l-1.59 -34.11c-1.31,-28.11 -3.21,-56.1 -5.75,-83.94l39.54 -3.57c2.58,28.43 4.53,56.98 5.84,85.64l1.62 34.11 -39.66 1.87zm-16.08 -195.99c-5.16,-38.88 -11.59,-77.99 -19.18,-116.22l38.91 -7.71c7.74,39.08 14.37,79.02 19.62,118.73l-39.35 5.2zm-4714.54 -118.28l-38.68 -9.06c8.9,-38.12 16.88,-76.79 24.5,-115.78l38.99 7.58c-7.74,39.47 -15.8,78.66 -24.81,117.26zm4678.41 -74.57c-9.26,-38 -19.86,-76.16 -31.61,-113.4l37.89 -11.95c11.98,38.11 22.86,77.1 32.28,115.98l-38.56 9.37zm-1850.36 -25.18c-5.92,0 -11.91,-0.12 -17.94,-0.43l1.91 -39.67c38.64,1.82 75.56,-3.02 110.22,-14.46l12.43 37.72c-33.88,11.17 -69.74,16.8 -106.62,16.84zm-100.31 -13.14c-20.52,-5.29 -41.45,-12.23 -62.17,-20.61 -18.5,-7.47 -36.33,-16.24 -52.97,-26.01l20.12 -34.22c14.97,8.81 31.05,16.71 47.73,23.46 19.09,7.75 38.31,14.1 57.17,18.94l-9.88 38.44zm282.8 -40.03l-21.56 -33.35c30.64,-19.82 58,-45.5 81.36,-76.36l31.64 23.98c-26.12,34.51 -56.9,63.34 -91.44,85.73zm-2970.87 -42.48l-38.99 -7.35c7.31,-38.91 14.65,-78.06 22.56,-117.26l38.91 7.87c-7.91,39 -15.22,77.95 -22.48,116.74zm2505.98 -14.37c-29.81,-28.2 -55.15,-61.75 -75.32,-99.67l35.07 -18.66c18.14,34.11 40.9,64.25 67.57,89.46l-27.32 28.87zm2075.98 -52.54c-13.46,-36.96 -28.32,-73.69 -44.04,-109.15l36.3 -16.12c16.11,36.29 31.29,73.85 45.06,111.69l-37.32 13.58zm-1476.37 -47.49l-35.78 -17.19c16.09,-33.52 27.8,-69.89 34.82,-108.04l39.04 7.18c-7.62,41.66 -20.49,81.36 -38.08,118.05zm-706.93 -76.07c-11.95,-37.4 -20.09,-78.03 -24.14,-120.79l39.5 -3.77c3.81,39.91 11.4,77.75 22.44,112.45l-37.8 12.11zm-2359.67 -3.38l-38.72 -8.86c9.73,-42.56 19.58,-80.68 30.06,-116.5l38.11 11.16c-10.27,35.06 -19.89,72.44 -29.45,114.2zm4465.42 -53.17c-17.55,-35.06 -36.49,-69.8 -56.31,-103.31l34.15 -20.25c20.29,34.31 39.7,69.88 57.69,105.78l-35.53 17.78zm-1352.52 -67.57l-39.7 -0.76 0.07 -9.09c0,-25.45 -2.02,-51.15 -6.03,-76.4 -1.55,-9.65 -3.25,-19.22 -5.12,-28.67l38.98 -7.62c1.95,9.93 3.74,19.93 5.33,30.06 4.33,27.32 6.55,55.12 6.55,82.63l-0.08 9.85zm-3059.42 -67.9l-37.4 -13.26c10.59,-29.95 22.16,-59.04 34.3,-86.49 3.78,-8.54 7.67,-17.04 11.59,-25.45l35.94 16.84c-3.81,8.18 -7.58,16.4 -11.24,24.65 -11.75,26.57 -22.95,54.72 -33.19,83.71zm2318.74 -9.53l-39.71 -0.79c0.76,-39.67 4.64,-80.53 11.52,-121.43l39.14 6.59c-6.55,39.03 -10.24,77.91 -10.95,115.63zm1995.36 -24.82c-21.6,-32.79 -44.6,-65.04 -68.22,-95.85l31.49 -24.18c24.22,31.56 47.77,64.6 69.88,98.19l-33.15 21.84zm-1323.96 -87.71c-11.08,-37 -25.1,-73.38 -41.62,-108.08l35.86 -17.07c17.39,36.57 32.12,74.85 43.8,113.76l-38.04 11.39zm-2910.25 -55.79l-34.78 -19.18c19.46,-35.3 40.86,-69.92 63.61,-102.88l32.68 22.51c-22,31.89 -42.69,65.37 -61.51,99.55zm4116.68 -13.3c-25.25,-29.78 -51.98,-59 -79.38,-86.8l28.32 -27.87c28.07,28.52 55.46,58.45 81.36,88.98l-30.3 25.69zm-1850.47 -9.8l-38.4 -10.13c10.45,-39.63 23.55,-78.46 38.99,-115.38l36.66 15.28c-14.74,35.26 -27.25,72.34 -37.25,110.23zm565.77 -97.17c-19.82,-32.6 -42.45,-64.4 -67.31,-94.54l30.62 -25.29c26.04,31.61 49.79,65 70.6,99.23l-33.91 20.6zm1148.86 -34.38c-28.71,-26.41 -58.8,-52.06 -89.5,-76.32l24.62 -31.13c31.45,24.86 62.3,51.19 91.76,78.22l-26.88 29.23zm-3872.96 -7.75l-31.13 -24.62c24.85,-31.4 51.62,-62.06 79.61,-91.12l28.59 27.56c-27.12,28.15 -53.05,57.81 -77.07,88.18zm2228.92 -40.7l-34.87 -19.02c20.93,-38.35 44.08,-72.62 68.82,-101.88l30.34 25.65c-23.03,27.23 -44.64,59.28 -64.29,95.25zm375.86 -69.32c-26.57,-26.96 -55.79,-53.17 -86.8,-77.99l24.78 -31.01c32.29,25.78 62.66,53.05 90.3,81.13l-28.28 27.87zm1116 -5.56c-31.65,-22.6 -64.69,-44.35 -98.2,-64.68l20.61 -33.92c34.34,20.85 68.22,43.12 100.65,66.28l-23.06 32.32zm-3587.76 -27.09l-26.81 -29.3c29.31,-26.81 60.56,-52.81 92.88,-77.36l23.98 31.65c-31.33,23.79 -61.63,49.05 -90.05,75.01zm2213.71 -48.48l-26.92 -29.18c21.88,-20.17 45.14,-39.15 69.49,-56.62 -11,-6.59 -22.16,-13.06 -33.48,-19.42l19.42 -34.62c35.97,20.21 70.51,41.69 102.68,63.89l-22.56 32.68c-9.61,-6.62 -19.42,-13.18 -29.46,-19.69 -27.91,19.01 -54.47,40.17 -79.17,62.96zm1207.83 -28.23c-15.53,-8.41 -31.25,-16.63 -47.18,-24.61 -18.98,-9.49 -38.35,-18.67 -58.17,-27.44l16.12 -36.29c20.37,9.05 40.34,18.46 59.83,28.23 16.32,8.21 32.4,16.6 48.32,25.21l-18.92 34.9zm-3267.8 -43.71l-22.11 -32.96c32.84,-22.03 67.47,-43.2 102.96,-62.97l19.3 34.71c-34.52,19.21 -68.18,39.82 -100.15,61.22zm2218.08 -37.88l-18.03 -35.38c35.58,-18.14 73.5,-33.91 112.61,-46.85l12.51 37.68c-37.24,12.35 -73.26,27.31 -107.09,44.55zm871.95 -0.2c-36.53,-13.86 -74.05,-26.33 -111.45,-37.09l10.96 -38.15c38.44,11.04 76.99,23.9 114.55,38.11l-14.06 37.13zm-1090.33 -31.73c-34.23,-16.87 -70.36,-33.03 -107.45,-48.08l14.93 -36.8c37.96,15.41 74.97,32 110.02,49.27l-17.5 35.61zm903.04 -24.93c-38.55,-8.77 -77.39,-15.88 -115.47,-21.17l5.44 -39.3c39.19,5.39 79.18,12.74 118.84,21.8l-8.81 38.67zm-2733.19 -2.82l-17.47 -35.66c35.54,-17.44 72.59,-33.92 110.11,-49l14.81 36.85c-36.66,14.74 -72.79,30.82 -107.45,47.81zm2230.31 -5.71l-8.97 -38.72c38.64,-8.93 78.98,-15.56 119.95,-19.73l4.01 39.51c-39.31,4 -78.02,10.35 -114.99,18.94zm309.71 -20.97c-39.58,-2.94 -78.54,-3.97 -116.97,-2.94l-1.07 -39.71c39.71,-1.12 80.13,-0.04 121.07,3.05l-3.03 39.6zm-890.81 -21.68c-36.1,-12.94 -73.86,-25.21 -112.25,-36.49l11.19 -38.08c39.12,11.47 77.63,23.98 114.43,37.2l-13.37 37.37zm-1468.35 -27l-13.1 -37.49c37.32,-13.06 76,-25.13 114.91,-35.93l10.65 38.28c-38.13,10.52 -75.93,22.35 -112.46,35.14zm1280.21 -30.38c-37.39,-9.6 -76.16,-18.54 -115.14,-26.56l7.98 -38.88c39.63,8.14 78.97,17.24 117.01,27l-9.85 38.44zm-1091.72 -24.26l-9.06 -38.67c38.68,-9.06 78.34,-17.08 117.89,-23.86l6.71 39.11c-38.75,6.7 -77.66,14.57 -115.54,23.42zm899.11 -17.03c-39.54,-6.91 -78.62,-12.78 -116.97,-17.75l5.08 -39.38c38.92,5.04 78.62,11.04 118.73,18.03l-6.84 39.1zm-705.78 -18.15l-5.24 -39.35c39.35,-5.24 79.54,-9.45 119.56,-12.58l3.05 39.58c-39.27,3.06 -78.78,7.18 -117.37,12.35zm510.5 -8.49c-38.68,-3.74 -78.26,-6.55 -117.77,-8.3l1.79 -39.67c40.18,1.82 80.48,4.64 119.84,8.46l-3.86 39.51zm-314.51 -8.62l-1.67 -39.67c32.24,-1.36 64.49,-2.03 96.65,-2.03l23.47 0.13 -0.4 39.7 -23.11 -0.12c-31.61,0.04 -63.25,0.68 -94.94,1.99z"/>
     </g>
     <g>
      <path class="fil1" d="M7093.86 7651.4l-25.49 -29.58 30.14 -25.85 25.42 29.51 -30.07 25.92zm-77.03 -90.33c-25.25,-30.06 -50.66,-61.03 -75.71,-92.84l31.2 -24.54c24.78,31.44 49.91,62.1 74.89,91.84l-30.38 25.54zm-124.32 -156.36c-25.37,-34.23 -47.88,-66.51 -68.89,-98.67l33.28 -21.72c20.57,31.53 42.65,63.13 67.54,96.72l-31.93 23.67zm-111.21 -167.05c-21.09,-36.21 -39.98,-72.23 -56.19,-107.09l36.01 -16.71c15.65,33.75 33.95,68.69 54.48,103.79l-34.3 20.01zm-87.4 -181.7c-14.65,-39.15 -26.36,-78.42 -34.81,-116.66l38.79 -8.61c8.1,36.49 19.25,73.98 33.23,111.41l-37.21 13.86zm-48.29 -197.02c-2.5,-22.36 -3.93,-44.94 -4.29,-67.14l-0.16 -18.98c0,-11.95 0.2,-23.83 0.56,-35.58l39.71 1.19c-0.36,11.4 -0.52,22.87 -0.56,34.43l0.16 18.3c0.32,20.92 1.66,42.25 4.04,63.37l-39.46 4.41zm41.02 -198.26l-39.47 -4.13c4.3,-41.09 11,-81.39 20.02,-119.87l38.67 9.05c-8.66,36.86 -15.08,75.52 -19.22,114.95zm40.23 -189.56l-37.64 -12.54c13.06,-39.11 28.98,-76.96 47.32,-112.45l35.3 18.23c-17.47,33.67 -32.59,69.6 -44.98,106.76zm84.02 -173.23l-33.03 -22.04c22.63,-33.98 48.28,-66.15 76.27,-95.57l28.79 27.33c-26.41,27.78 -50.63,58.16 -72.03,90.28zm128.25 -142.99l-25.49 -30.5c30.81,-25.73 64.4,-49.39 99.9,-70.28l20.18 34.19c-33.6,19.82 -65.44,42.22 -94.59,66.59zm163.11 -102.39l-16.6 -36.06c35.89,-16.56 74.21,-31.05 113.76,-43.12l11.59 37.96c-37.83,11.59 -74.44,25.45 -108.75,41.22zm968.8 -19.19l-0.56 -39.7c41.89,-0.56 79.37,-4.37 114.59,-11.59l7.98 38.91c-37.67,7.69 -77.62,11.75 -122.01,12.38zm-81 -2.5c-35.34,-2.46 -73.39,-6.55 -119.76,-12.98l5.44 -39.31c45.46,6.28 82.66,10.28 117.01,12.67l-2.69 39.62zm-198.57 -24.62l-18.47 -2.85c-32.83,-5.09 -65.87,-10.21 -99.03,-14.82l5.44 -39.31c33.39,4.61 66.63,9.77 99.66,14.85l18.43 2.86 -6.03 39.27zm480.92 -8.49l-14.37 -37c35.17,-13.7 68.49,-32.24 98.94,-55.16l23.86 31.77c-33.39,25.09 -69.87,45.42 -108.43,60.39zm-986.11 -6.04l-8.58 -38.79c16.05,-3.54 32.44,-6.75 49.08,-9.65 22.83,-3.97 46.81,-6.91 71.31,-8.78l3.01 39.59c-23.22,1.75 -45.98,4.56 -67.53,8.3 -16.08,2.82 -31.84,5.92 -47.29,9.33zm309.51 -12.71c-42.85,-4.4 -81.12,-6.78 -117.06,-7.22l0.52 -39.71c37.13,0.48 76.6,2.91 120.63,7.43l-4.09 39.5zm846.54 -96.6l-28.75 -27.39c24.94,-26.13 48.72,-56.71 70.64,-90.86l33.43 21.45c-23.26,36.29 -48.63,68.89 -75.32,96.8zm115.35 -167.84l-35.58 -17.63c17.51,-35.34 33.03,-72.67 47.18,-107.73l36.85 14.85c-14.5,35.78 -30.39,73.98 -48.45,110.51zm1846.47 -67.86c-9.89,-23.95 -19.5,-48.37 -29.19,-72.99l-14.96 -37.92 36.89 -14.69 15.05 38.05c9.6,24.42 19.13,48.67 28.95,72.38l-36.74 15.17zm-1768.45 -116.26l-36.73 -15.05c13.58,-33.15 30.18,-72.14 50.03,-110.11l35.18 18.43c-19.13,36.45 -35.22,74.41 -48.48,106.73zm1694.08 -67.46c-17.6,-40.34 -34.59,-74.57 -51.94,-104.7l34.38 -19.82c18.1,31.41 35.73,66.95 53.96,108.64l-36.4 15.88zm-1606.01 -105.1l-32.52 -22.79c3.61,-5.13 7.31,-10.16 11.08,-15.17 20.49,-26.87 44.51,-52.64 71.47,-76.59l26.37 29.7c-25.05,22.24 -47.33,46.1 -66.27,70.95 -3.41,4.52 -6.83,9.21 -10.13,13.9zm1511.95 -63.97c-24.1,-32.24 -49.71,-59.36 -78.35,-82.95l25.29 -30.61c31.05,25.61 58.81,54.99 84.85,89.77l-31.79 23.79zm-1374.88 -68.14l-22.48 -32.72c32.01,-22 67.47,-42.56 105.5,-61.18l17.43 35.66c-36.24,17.78 -70.03,37.36 -100.45,58.24zm1233.8 -58.04c-32.29,-19.1 -67.31,-36.26 -104.11,-50.95l14.73 -36.89c38.71,15.48 75.57,33.51 109.59,53.68l-20.21 34.16zm-1062.11 -31.53l-14.57 -36.97c36.41,-14.33 75.04,-27.32 114.75,-38.64l10.85 38.2c-38.48,10.93 -75.85,23.51 -111.03,37.41zm884.7 -44.99c-36.06,-10.85 -74.29,-19.98 -113.64,-27.04l7.07 -39.08c40.82,7.39 80.53,16.84 118,28.07l-11.43 38.05zm-697.8 -11.52l-8.53 -38.79c39.3,-8.66 79.33,-15.72 118.95,-21.04l5.29 39.34c-38.56,5.17 -77.48,12.08 -115.71,20.49zm506.89 -26.88c-37.64,-4.29 -77.07,-7.11 -117.17,-8.26l1.19 -39.71c41.22,1.23 81.76,4.14 120.47,8.54l-4.49 39.43zm-313.12 -2.18l-3.5 -39.55c40.58,-3.57 81.04,-5.79 120.27,-6.59l0.84 39.71c-38.4,0.75 -77.95,2.93 -117.61,6.43z"/>
     </g>
     <g>
      <path class="fil1" d="M13824.19 7938.16l-0.92 -39.7c38.59,-0.83 77.86,-3.74 116.77,-8.58l4.89 39.39c-40.19,5 -80.84,7.98 -120.74,8.89zm-80.85 -1.15c-41.1,-2.06 -81.68,-6.48 -120.67,-13.07l6.62 -39.14c37.45,6.35 76.48,10.56 116.02,12.54l-1.97 39.67zm281.36 -20.29l-7.5 -38.99c38.35,-7.34 76.63,-16.67 113.76,-27.71l11.31 38.08c-38.35,11.39 -77.94,21.03 -117.57,28.62zm194.17 -54.32l-13.9 -37.2c36.97,-13.82 73.02,-29.54 107.09,-46.73l17.9 35.46c-35.34,17.86 -72.74,34.18 -111.09,48.47zm182.05 -88.11l-21.12 -33.63c34.23,-21.52 63.81,-44.54 90.41,-70.51l27.72 28.42c-28.28,27.56 -60.92,53.05 -97.01,75.72zm151.24 -137.82l-31.89 -23.66c8.54,-11.52 16.55,-23.35 24.1,-35.66 -13.86,-3.3 -27.64,-7.07 -41.14,-11.32l11.95 -37.88c16.21,5.12 32.76,9.49 49.4,13.06 4.49,-8.85 8.81,-17.94 12.98,-27.32l36.29 16.08c-2.74,6.2 -5.59,12.35 -8.5,18.39 7.47,0.99 14.86,1.83 22.24,2.51l-3.54 39.54c-12.63,-1.11 -25.48,-2.74 -38.39,-4.84 -10.35,17.98 -21.54,35.06 -33.5,51.1zm155.01 -46.33l-4.13 -39.51c8.74,-0.92 17.15,-2.15 25.21,-3.77 30.22,-6.08 58.01,-14.97 82.59,-26.41l16.8 35.97c-27.43,12.79 -58.2,22.67 -91.6,29.39 -9.25,1.82 -18.9,3.29 -28.87,4.33zm-280.44 -54.68c-40.5,-19.82 -75.24,-43.32 -103.27,-69.93l27.36 -28.82c25.09,23.82 56.54,45.03 93.38,63.06l-17.47 35.69zm472.03 -24.54l-25.81 -30.17c27.16,-23.27 49.67,-52.74 66.9,-87.56l35.58 17.6c-19.57,39.69 -45.38,73.37 -76.67,100.13zm-256.55 -58.41l-38.35 -10.36c9.01,-33.48 14.85,-73.66 16.32,-113.29l39.67 1.51c-1.55,42.49 -7.87,85.85 -17.64,122.14zm-371.21 -54.28c-14.14,-26.33 -22.44,-54.2 -24.7,-82.91 -0.39,-5.32 -0.63,-10.68 -0.63,-16.04 0,-9.21 0.6,-18.54 1.75,-27.92l39.38 4.8c-0.91,7.75 -1.42,15.49 -1.42,23.11 0,4.37 0.16,8.7 0.52,12.98 1.82,23.19 8.57,45.78 20.09,67.18l-34.99 18.8zm733.54 -65.28l-38.32 -10.48c9.13,-33.52 15.45,-70.72 19.26,-113.8l39.54 3.5c-4.01,45.46 -10.72,85.01 -20.48,120.78zm-387.14 -80.28c-5.09,-42.85 -15.92,-78.18 -32.24,-105.02l33.95 -20.61c19.22,31.72 31.92,72.39 37.68,120.9l-39.39 4.73zm-310.11 -46.49l-36.01 -16.68c18.54,-40.1 45.19,-75.05 76.99,-101.09l25.14 30.77c-26.81,21.88 -50.31,52.8 -66.12,87zm721.94 -74.61l-39.71 -0.84c0.28,-12.74 0.4,-25.53 0.4,-38.31 0,-26.84 -0.52,-53.57 -1.15,-79.94l39.7 -0.95c0.64,26.64 1.16,53.76 1.16,80.88 0,13.02 -0.12,26.09 -0.4,39.16zm-493.35 -31.1c-32.6,-18.19 -66.79,-22.95 -100.22,-14.17l-10.09 -38.39c43.32,-11.44 88.11,-5.32 129.64,17.9l-19.33 34.66zm450.99 -167.47c-0.28,-15.73 -0.48,-31.17 -0.48,-46.22 0,-26.14 0.6,-51.19 2.23,-74.62l39.63 2.75c-1.59,22.59 -2.15,46.69 -2.15,71.87 0,14.81 0.2,29.97 0.47,45.46l-39.7 0.76z"/>
     </g>
     <g>
      <path class="fil1" d="M12329.79 7080.58l-39.59 -2.78c0.6,-8.26 0.84,-16.55 0.84,-24.82 0,-28.55 -3.54,-57.89 -10.49,-87.23l38.68 -9.13c7.62,32.36 11.51,64.76 11.51,96.41 0,9.12 -0.31,18.34 -0.95,27.55zm-72.94 -187.02c-14.02,-33.39 -32.48,-67.42 -54.95,-101.17l33.03 -22.04c23.86,35.86 43.55,72.11 58.53,107.84l-36.61 15.37zm-101.13 -163.39c-23.55,-28.82 -50.26,-57.65 -79.33,-85.69l27.55 -28.59c30.22,29.11 57.94,59.13 82.52,89.14l-30.74 25.14zm-137.34 -138.05c-29.03,-24.58 -60.28,-48.77 -92.88,-71.87l22.95 -32.36c33.56,23.78 65.68,48.64 95.57,73.93l-25.64 30.3zm-158.04 -115.51c-32.88,-20.85 -67.1,-40.74 -101.77,-59.16l18.66 -35.07c35.54,18.9 70.64,39.31 104.36,60.68l-21.25 33.55zm-171.96 -94.3c-36.17,-17 -72.63,-32.33 -108.36,-45.63l13.86 -37.25c36.72,13.7 74.21,29.46 111.37,46.89l-16.87 35.99zm-182.45 -70.77c-39.24,-11.91 -77.43,-21.16 -113.49,-27.52l6.91 -39.07c37.65,6.63 77.35,16.28 118.13,28.63l-11.55 37.96zm-190.12 -36.84c-18.5,-1.15 -36.37,-1.35 -53.53,-0.59l-1.82 -39.67c18.46,-0.84 37.79,-0.6 57.81,0.63l-2.46 39.63z"/>
     </g>
     <g>
      <path class="fil1" d="M14358.44 10004.92c-9.85,0 -19.62,-0.04 -29.31,-0.2l0.56 -39.7c38.87,0.55 78.34,-0.04 118.05,-1.72l1.71 39.67c-30.58,1.32 -60.96,1.95 -91.01,1.95zm-109.44 -2.74c-40.38,-2.06 -80.73,-5.24 -119.88,-9.45l4.25 -39.47c38.44,4.13 77.98,7.27 117.6,9.25l-1.97 39.67zm280.49 -4.21l-3.3 -39.54c39.78,-3.3 79.21,-7.82 117.21,-13.43l5.75 39.27c-38.78,5.72 -79.08,10.36 -119.66,13.7zm-479.93 -15.45l-23.07 -3.57 6.35 -39.19 22.56 3.5 -5.84 39.26zm678.82 -11.83l-7.62 -38.99c39.34,-7.74 77.82,-16.84 114.28,-27.12l10.75 38.24c-37.48,10.56 -76.99,19.93 -117.41,27.87zm194.36 -51.97l-13.07 -37.48c37.89,-13.18 74.29,-28.04 108.28,-44.15l17.04 35.85c-35.3,16.75 -73.06,32.16 -112.25,45.78zm183.92 -83.47l-19.93 -34.34c34.42,-19.98 66.7,-41.97 95.93,-65.32l24.78 31.01c-30.78,24.62 -64.65,47.69 -100.78,68.65zm161.6 -122.93l-28.11 -28.03c27.52,-27.59 52.29,-57.41 73.58,-88.58l32.79 22.36c-22.67,33.23 -48.99,64.91 -78.26,94.25zm119.92 -164.74l-35.42 -17.95c17.11,-33.75 31.25,-69.76 42.01,-107.08l38.16 11c-11.48,39.7 -26.53,78.09 -44.75,114.03z"/>
     </g>
     <g>
      <path class="fil1" d="M13671.52 16673.09c-20.13,0 -40.31,-0.35 -60.4,-0.99l1.32 -39.7c39.18,1.31 78.46,1.35 117.76,-0.04l1.39 39.7c-20.06,0.72 -40.07,1.03 -60.07,1.03zm-140.61 -5.55c-40.11,-3.18 -80.37,-7.67 -119.64,-13.43l5.76 -39.31c38.43,5.64 77.82,10.05 117.05,13.18l-3.17 39.56zm280.84 -0.08l-3.17 -39.55c38.99,-3.13 78.34,-7.74 116.9,-13.62l5.95 39.24c-39.47,6.03 -79.73,10.72 -119.68,13.93zm-479.61 -26.57c-39.31,-7.46 -78.86,-16.2 -117.49,-26.08l9.85 -38.48c37.84,9.69 76.51,18.27 114.98,25.58l-7.34 38.98zm678.47 -1.35l-7.87 -38.91c37.69,-7.58 76.24,-16.8 114.72,-27.24l10.44 38.32c-39.32,10.65 -78.78,20.01 -117.29,27.83zm1330.64 -18.54c-34.19,0 -68.46,-0.87 -102.77,-2.58l1.99 -39.63c33.62,1.67 67.22,2.55 100.78,2.55l17.19 -0.08 0.28 39.71 -17.47 0.03zm97.67 -2.46l-1.98 -39.63c39.07,-1.99 78.58,-5.17 117.45,-9.57l4.45 39.47c-39.67,4.49 -80.01,7.79 -119.92,9.73zm-280.36 -5.76c-39.35,-3.5 -79.49,-8.18 -119.39,-13.94l5.68 -39.31c39.18,5.69 78.62,10.29 117.21,13.7l-3.5 39.55zm479.89 -14.69l-6.19 -39.24c38.91,-6.11 77.86,-13.53 115.74,-22.07l8.7 38.79c-38.72,8.67 -78.51,16.25 -118.25,22.52zm-2501.11 -4.61c-38.35,-11.47 -76.79,-24.18 -114.16,-37.84l13.63 -37.29c36.65,13.38 74.32,25.85 111.93,37.09l-11.4 38.04zm1067.55 -4.56l-12.08 -37.85c37.72,-11.98 75.17,-25.17 111.26,-39.15l14.33 37.01c-36.84,14.3 -75.04,27.76 -113.51,39.99zm755.17 -2.9c-17.94,-3.25 -35.85,-6.67 -53.8,-10.32 -19.73,-4.05 -41.13,-8.57 -63.8,-13.7l8.73 -38.71c22.4,5.04 43.52,9.49 62.98,13.46 17.63,3.57 35.3,6.99 52.97,10.16l-7.08 39.11zm874.54 -29.78l-10.4 -38.31c37.68,-10.2 75.56,-21.8 112.69,-34.47l12.83 37.6c-37.93,12.95 -76.64,24.78 -115.12,35.18zm-1070.01 -12.79c-39.64,-10.08 -78.59,-20.92 -115.75,-32.32l11.59 -37.99c36.57,11.19 74.92,21.91 113.92,31.84l-9.76 38.47zm-1816.18 -16.71c-37.08,-15.21 -74.05,-31.61 -109.91,-48.76l17.12 -35.82c35.18,16.84 71.44,32.92 107.81,47.81l-15.02 36.77zm1444.33 -8.46l-15.96 -36.37c28.55,-12.55 56.65,-25.77 83.82,-39.51 -0.08,-0.07 -0.2,-0.12 -0.28,-0.16l15.88 -36.37c34.03,14.89 70.92,29.26 109.63,42.85l-13.1 37.44c-26.13,-9.13 -51.46,-18.7 -75.68,-28.51l4.37 8.34c-34.83,18.3 -71.4,35.89 -108.68,52.29zm1632.45 -25.09l-14.73 -36.85c36.41,-14.57 72.34,-30.85 106.77,-48.41l18.03 35.38c-35.55,18.11 -72.55,34.91 -110.07,49.88zm-3258.35 -51.1c-35.46,-18.63 -70.71,-38.39 -104.86,-58.8l20.41 -34.03c33.48,20.01 68.1,39.43 102.92,57.74l-18.47 35.09zm1804.77 -15.41l-20.32 -34.11c34.54,-20.61 67.54,-42.25 98.11,-64.33l23.27 32.2c-31.49,22.76 -65.47,45.03 -101.06,66.24zm-184.27 -19.06c-38.4,-19.82 -73.54,-40.86 -104.43,-62.58l22.79 -32.48c29.46,20.65 63.06,40.78 99.86,59.8l-18.22 35.26zm1818.59 -3.02l-20.18 -34.18c33.08,-19.5 66.08,-41.1 98.2,-64.13l23.15 32.29c-33.03,23.65 -67.06,45.89 -101.17,66.02zm-3611.93 -63.69c-33.56,-21.76 -66.87,-44.7 -99.03,-68.22l23.42 -32.04c31.57,23.03 64.29,45.54 97.21,66.91l-21.6 33.35zm2142.52 -30.01l-25.45 -30.5c30.77,-25.65 59.36,-52.54 84.97,-79.89l28.95 27.16c-26.69,28.51 -56.47,56.54 -88.47,83.23zm-517.65 -17.04c-33,-30.34 -59.68,-62.57 -79.38,-95.89l34.19 -20.17c17.67,29.94 41.93,59.12 72.03,86.79l-26.84 29.27zm2152.2 -4.09l-24.89 -30.94c29.5,-23.74 58.6,-48.91 88.94,-77.06l27 29.14c-31.01,28.71 -60.79,54.56 -91.05,78.86zm-3939.98 -65.36c-31.41,-24.69 -62.5,-50.55 -92.44,-76.83l26.2 -29.86c29.38,25.85 59.92,51.23 90.77,75.45l-24.53 31.24zm2446.66 -58.56l-31.49 -24.19c24.22,-31.49 45.34,-64.12 62.77,-97.04l35.1 18.62c-18.49,34.83 -40.81,69.37 -66.38,102.61zm1642.11 -10.6l-28.04 -28.16c27.4,-27.32 54.6,-55.78 81.88,-85.29l29.14 26.93c-27.59,29.97 -55.15,58.8 -82.98,86.52zm-2414.55 -33.64c-12.27,-38.48 -18.7,-79.88 -19.14,-123.13l39.71 -0.39c0.4,39.27 6.19,76.75 17.27,111.41l-37.84 12.11zm-1825.86 -28.03c-18.15,-17.15 -35.98,-34.58 -53.49,-52.29l28.23 -27.92c17.24,17.44 34.71,34.55 52.54,51.38l-27.28 28.83zm2698.28 -104.94l-37.16 -13.97c13.54,-36.06 23.3,-73.42 29.11,-110.94l39.23 6.03c-6.2,40.3 -16.68,80.24 -31.18,118.88zm-846.34 -66.47l-39.23 -5.96c5.92,-38.87 16.2,-78.89 30.53,-118.92l37.37 13.43c-13.5,37.6 -23.15,75.08 -28.67,111.45zm884.46 -133.97l-39.7 -0.72 0.07 -9.73c0,-34.31 -3.1,-69.68 -9.21,-105.14l39.11 -6.75c6.52,37.64 9.81,75.28 9.81,111.85l-0.08 10.49zm-825.82 -48.76l-35.73 -17.31c17.39,-35.98 37.88,-71.55 60.82,-105.66l32.96 22.2c-21.95,32.56 -41.48,66.47 -58.05,100.77zm759.59 -141.91l-3.61 -12.18c-10.76,-35.14 -23.59,-67.11 -38.16,-94.98l35.18 -18.38c15.68,30.01 29.5,64.24 40.97,101.77l3.77 12.58 -38.15 11.19zm-655.39 -21.36l-30.85 -24.98c25.81,-31.89 53.76,-61.9 82.98,-89.22l27.13 28.99c-27.96,26.12 -54.61,54.79 -79.26,85.21zm138.3 -135.08l-23.99 -31.64c34.31,-25.97 69.37,-47.81 104.27,-64.92l17.43 35.66c-32.56,15.95 -65.44,36.48 -97.71,60.9zm434.19 -13.55c-24.98,-30.34 -53.77,-53.13 -85.61,-67.74l16.6 -36.05c37.29,17.15 70.84,43.6 99.67,78.49l-30.66 25.3zm-265.84 -74.96l-10.96 -38.15c43.45,-12.51 85.45,-16.95 125.16,-12.91l-4.01 39.47c-34.83,-3.53 -71.6,0.47 -110.19,11.59z"/>
     </g>
     <g>
      <path class="fil1" d="M19657.77 15297.07l-74.92 -0.2 0.2 -39.71 74.72 0.2 44.15 -0.07 0.12 39.7 -44.27 0.08zm123.85 -0.56l-0.4 -39.71c39.67,-0.39 79.29,-0.95 118.88,-1.82l0.83 39.71c-39.7,0.83 -79.49,1.42 -119.31,1.82zm-278.31 -0.2c-39.71,-0.39 -79.45,-0.87 -119.24,-1.51l0.63 -39.71c39.71,0.64 79.38,1.12 119,1.52l-0.39 39.7zm-198.69 -2.85l-119.16 -2.35 0.83 -39.7 119.08 2.34 -0.75 39.71zm675.92 -0.72l-1.15 -39.71 19.82 -0.59 1.15 39.7 -19.82 0.6zm-874.49 -3.29l-119.08 -2.66 0.87 -39.7 119.12 2.65 -0.91 39.71zm-198.45 -4.45l-119.08 -2.42 0.79 -39.71 119.12 2.42 -0.83 39.71zm-198.42 -3.89c-39.67,-0.67 -79.37,-1.23 -118.99,-1.71l0.47 -39.71c39.71,0.48 79.45,1.03 119.19,1.71l-0.67 39.71zm-198.33 -2.5c-39.67,-0.33 -79.34,-0.48 -118.96,-0.48l0 -39.7c39.74,0 79.49,0.16 119.28,0.47l-0.32 39.71z"/>
     </g>
     <g>
      <path class="fil1" d="M19964.54 15995.11c-33.28,-16.92 -69.33,-32.29 -107.09,-45.7l13.31 -37.36c39.34,13.97 76.95,30.01 111.73,47.64l-17.95 35.42zm-181.41 -69.17c-36.01,-9.96 -73.42,-18.7 -114.43,-26.64l7.54 -38.99c42.05,8.18 80.48,17.15 117.53,27.4l-10.64 38.23zm-191.94 -39.99c-38.68,-5.92 -77.87,-10.92 -117.37,-15.41l4.44 -39.47c40.03,4.53 79.73,9.61 118.92,15.61l-5.99 39.27zm-196.12 -23.62c-31.96,-3.14 -64.05,-6.03 -96.16,-8.97l-22.47 -2.03 3.61 -39.54 22.43 2.06c32.2,2.9 64.36,5.79 96.41,8.93l-3.82 39.55zm-197.81 -18.31c-39.83,-3.89 -79.54,-7.97 -118.96,-12.78l4.77 -39.38c39.11,4.73 78.49,8.86 118,12.63l-3.81 39.53zm-198.26 -23.38c-42.48,-6.32 -81.24,-13.18 -118.45,-21.01l8.18 -38.88c36.41,7.67 74.41,14.37 116.1,20.65l-5.83 39.24zm-196.74 -39.59c-40.63,-10.84 -79.42,-23.26 -115.31,-36.89l14.09 -37.12c34.62,13.18 72.11,25.17 111.46,35.61l-10.24 38.4zm-189.72 -68.61c-37.37,-17.87 -72.99,-38.12 -105.82,-60.16l22.11 -32.96c31.29,20.93 65.19,40.23 100.85,57.26l-17.14 35.86z"/>
     </g>
     <g>
      <path class="fil1" d="M19187.01 16514.67c-7.5,-9.85 -16.08,-19.89 -25.61,-30.06l28.95 -27.16c10.52,11.24 19.98,22.31 28.23,33.16l-31.57 24.06zm-81.76 -82.87c-27.12,-22.87 -58.56,-46.69 -93.47,-70.8l22.56 -32.63c35.93,24.81 68.42,49.39 96.49,73.13l-25.58 30.3zm-159.22 -113.95c-32.12,-20.18 -66.35,-40.34 -101.81,-59.92l19.18 -34.75c36.1,19.93 71,40.5 103.71,60.99l-21.08 33.68zm-171.41 -96.89c-36.13,-18.42 -72.03,-35.57 -106.61,-50.9l16.12 -36.29c35.22,15.68 71.75,33.12 108.52,51.85l-18.03 35.34zm-179.16 -81.28c-41.42,-16.28 -78.69,-28.79 -110.78,-37.25l10.13 -38.39c33.55,8.85 72.3,21.87 115.14,38.67l-14.49 36.97z"/>
     </g>
     <g>
      <path class="fil1" d="M9578.33 16604.37l-17.39 -35.67c7.74,-3.81 15.28,-7.86 22.67,-12.14l19.97 34.27c-8.25,4.8 -16.63,9.33 -25.25,13.54zm92.64 -60.95l-25.09 -30.78c28.12,-22.95 55.27,-49 81.47,-74.21l5.24 -5 27.47 28.63 -5.2 5.03c-26.79,25.7 -54.51,52.34 -83.89,76.33zm146.75 -134.85l-26.33 -29.7c29.86,-26.44 60.04,-52.49 90.5,-78.18l25.61 30.33c-30.18,25.54 -60.11,51.35 -89.78,77.55zm150.61 -128.17l-25.21 -30.65c30.77,-25.34 61.78,-50.31 92.99,-75.05l24.65 31.1c-31,24.61 -61.82,49.42 -92.43,74.6zm154.74 -123.53l-24.39 -31.33c31.41,-24.42 62.94,-48.67 94.58,-72.74l24.02 31.57c-31.48,23.99 -62.92,48.12 -94.21,72.5zm157.47 -120.43l-23.95 -31.73c31.73,-23.94 63.53,-47.77 95.37,-71.54l23.79 31.8c-31.79,23.78 -63.52,47.57 -95.21,71.47zm158.87 -118.96l-23.78 -31.8 95.45 -71.4 23.7 31.89 -95.37 71.31zm159.14 -118.32l-23.43 -32.04 96.22 -70.28 23.46 32.04 -96.25 70.28zm160.25 -117.41l-23.66 -31.89c31.89,-23.66 63.49,-47.49 94.58,-71.67l24.38 31.33c-31.32,24.42 -63.17,48.4 -95.3,72.23z"/>
     </g>
     <g>
      <path class="fil1" d="M10440.95 16789.52l-36.96 -14.49 1.98 -5.04c12.35,-31.41 26.01,-66.15 40.9,-103.04l36.81 14.89c-14.86,36.77 -28.43,71.35 -40.74,102.64l-1.99 5.04zm72.91 -180.99l-36.6 -15.36c14.96,-35.7 30.93,-72.54 47.88,-109.82l36.13 16.44c-16.76,36.91 -32.57,73.44 -47.41,108.74zm80.84 -180.3l-35.73 -17.31c18.3,-37.84 36.72,-73.82 54.72,-106.93l34.9 18.93c-17.72,32.56 -35.86,68.02 -53.89,105.31zm92.75 -173.64l-34.07 -20.41c22.08,-36.89 44.31,-70.92 66.15,-101.13l32.16 23.27c-21.15,29.3 -42.76,62.37 -64.24,98.27zm112.17 -159.46l-30.13 -25.81c29.38,-34.22 59.04,-63.06 88.22,-85.64l24.3 31.4c-27.03,20.93 -54.75,47.85 -82.39,80.05z"/>
     </g>
     <g>
      <path class="fil21" d="M12928.68 10509.31c0,0 12.55,4.36 34.82,9.88 21.96,6.52 54.32,12.08 92.32,20.06 38.24,7.38 83.22,12.9 131.39,17.79 24.02,2.74 49.08,3.85 74.29,6.35 25.41,0.87 51.14,2.82 76.95,3.1 51.62,1.83 103.28,0.72 151.88,-0.2 24.26,-1.35 47.81,-1.94 70.21,-2.34 22.39,-1.47 43.75,-2.86 62.97,-4.09 39.11,-2.31 71.87,-4.93 94.82,-6.75 23.19,-1.2 36.37,-1.83 36.37,-1.83 0,0 -12.55,4.09 -34.54,11.32 -22.32,5.72 -53.61,18.06 -92.72,24.78 -19.26,3.84 -40.62,8.1 -63.01,12.54 -22.56,3.45 -46.38,6.95 -71.15,9.81 -49.59,5.19 -102.88,6.98 -156.24,6.15 -26.65,-0.87 -53.25,-3.3 -79.45,-5.09 -26.09,-3.45 -51.82,-5.83 -76.4,-10.75 -49.44,-8.22 -94.3,-22.2 -132.39,-34.03 -37.99,-12.58 -68.02,-27.6 -88.78,-37.92 -20.42,-11.32 -31.34,-18.78 -31.34,-18.78z"/>
     </g>
    </g>
   </g>
  </g>
 </g>
</svg>
